<svg width="509" height="528" viewBox="0 0 509 528" fill="none" xmlns="http://www.w3.org/2000/svg">
<path d="M173.354 403.255C177.988 401.614 182.735 400.313 187.559 399.363L188.142 401.503C188.208 401.756 188.361 401.976 188.575 402.124C188.79 402.273 189.051 402.337 189.31 402.309L208.406 400.086C213.66 388.105 223.305 369.954 223.444 369.676C223.305 365.145 223.444 361.337 223.444 357C212.52 361.059 192.312 368.758 181.749 373.678C181.51 373.832 181.325 374.059 181.221 374.322C181.116 374.587 181.097 374.876 181.165 375.152C181.165 375.152 181.36 375.847 181.61 376.847C176.44 376.847 160.957 376.097 157.232 379.627C156.653 380.433 156.368 381.415 156.426 382.407C156.204 386.243 158.122 416.041 161.179 424.797C162.764 429.384 166.099 428.883 168.379 424.491C171.017 417.878 172.71 410.924 173.41 403.838C173.41 403.477 173.327 403.505 173.354 403.255ZM170.158 378.376C173.549 378.098 174.605 378.154 181.888 377.931C183.194 382.879 185.891 393.053 187.281 398.251C182.376 399.011 177.535 400.134 172.798 401.614C171.322 393.947 170.439 386.178 170.158 378.376Z" fill="#151101"/>
<path d="M429.198 135.096C429.893 134.123 429.003 132.872 428.253 131.899C430.379 129.713 432.737 127.765 435.285 126.09C439.587 123.946 443.518 121.132 446.932 117.751C448.35 116.277 451.018 113.248 450.018 111.469C449.017 109.69 447.238 109.578 444.82 110.607C445.867 109.507 446.724 108.238 447.349 106.854C448.127 104.686 446.293 102.935 442.318 104.547C443.763 102.24 444.097 99.8216 441.651 98.6541C439.677 97.709 436.786 99.9606 435.118 101.434C431.843 104.295 428.769 107.379 425.918 110.662C424.166 106.993 421.387 102.768 417.912 104.102C414.437 105.437 417.134 111.413 418.913 114.665L412.603 119.029C411.649 118.514 410.572 118.274 409.49 118.334C402.318 119.557 369.378 144.63 366.043 144.63C363.485 144.63 326.96 127.118 295.383 122.059C295.322 121.87 295.209 121.702 295.056 121.574C294.903 121.446 294.718 121.364 294.521 121.336C289.013 120.396 283.43 119.978 277.843 120.086C277.674 120.097 277.509 120.145 277.361 120.227C277.21 120.308 277.083 120.422 276.981 120.558H274.646C274.09 118.307 272.033 113.109 271.31 111.107C273.201 109.467 275.813 108.633 277.176 105.993C279.677 101.1 279.566 92.5943 278.871 87.1461C282.012 84.7556 282.096 80.9196 281.373 77.0002C281.095 75.4158 280.233 71.83 278.899 70.9405C278.148 70.4401 276.564 70.9405 275.202 71.4408C273.84 68.2719 273.84 69.7174 274.396 68.4387C274.656 67.8494 274.806 67.2187 274.841 66.5763C276.314 67.0211 279.372 64.0746 278.315 60.183C277.762 58.7901 277.083 57.4503 276.286 56.1802C276.675 55.2351 277.509 54.0955 274.896 50.6208C273.771 49.4069 272.309 48.5553 270.699 48.1747H269.42C268.498 46.8359 267.143 45.8544 265.584 45.395C263.231 44.7946 260.734 45.1443 258.635 46.3679C258.079 46.7848 257.634 47.3408 257.078 47.7299C255.82 46.9668 254.38 46.5635 252.909 46.5635C251.438 46.5635 249.997 46.9668 248.739 47.7299C248.003 48.0185 247.333 48.4532 246.77 49.0071C246.208 49.5615 245.76 50.2236 245.459 50.9544C244.097 50.4844 242.652 50.3034 241.216 50.4232C239.781 50.543 238.385 50.9605 237.12 51.6493C232.318 54.2531 228.725 58.6334 227.113 63.8522C227.069 64.6391 227.069 65.4281 227.113 66.215H226.807C222.638 65.6034 217.329 75.4992 221.581 83.1989C222.082 84.1162 222.721 84.978 223.333 85.9786C225.112 88.7583 224.417 89.5923 228.392 92.9835C229.559 93.9842 229.754 93.9008 230.477 94.5123C231.199 95.1239 230.921 94.8181 231.338 96.3747C231.565 97.2915 231.973 98.1548 232.536 98.9134C233.099 99.672 233.808 100.311 234.618 100.794C234.915 103.514 236.073 106.066 237.926 108.077C238.512 108.734 239.198 109.296 239.955 109.745C240.159 109.86 240.388 109.927 240.622 109.94C241.456 115.11 242.485 121.837 242.93 124.7L240.456 126.034C237.22 127.337 234.072 128.85 231.032 130.565C230.794 130.73 230.625 130.977 230.56 131.26C227.613 132.817 224.834 134.29 223.249 135.235C201.179 148.327 138.496 234.637 137.857 238.584C137.786 238.811 137.786 239.052 137.857 239.279C138.755 240.713 139.85 242.013 141.109 243.143C140.721 243.852 140.255 244.512 139.719 245.117C134.16 248.758 125.821 254.178 121.346 259.015C121.031 259.296 120.796 259.652 120.663 260.051C120.529 260.449 120.501 260.876 120.582 261.287C120.664 261.7 120.851 262.084 121.126 262.404C121.402 262.722 121.755 262.962 122.151 263.101C122.985 263.379 123.125 263.296 128.545 260.322C127.055 261.628 125.837 263.215 124.959 264.992C124.598 266.52 125.988 267.41 127.739 267.132C128.724 266.873 129.662 266.46 130.519 265.909C130.017 266.683 129.751 267.586 129.751 268.508C129.751 269.43 130.017 270.333 130.519 271.107C133.299 274.609 140.581 263.574 144.417 260.85C145.974 262.823 148.086 267.438 151.45 266.215C154.368 265.13 151.172 258.709 151.45 256.847C152.581 255.761 153.788 254.758 155.064 253.845C157.208 255.434 159.659 256.562 162.263 257.153C166.849 257.153 214.716 208.842 218.357 204.978C217.051 217.264 210.463 269.995 211.852 280.252C212.492 284.894 223.638 285.561 228.336 285.811C226.918 319.168 225.973 369.703 225.723 370.231C218.357 386.103 216.356 390.44 213.882 395.248C209.379 403.865 190.421 435.665 188.281 442.893C187.975 444.032 187.947 444.477 189.142 446.59C185.561 450.356 182.236 454.359 179.191 458.57C177.663 461.35 184.222 487.257 188.864 496.43C189.921 498.487 191.644 501.655 193.951 501.575C200.9 501.322 200.873 476.36 200.678 469.383C200.677 469.168 200.598 468.962 200.456 468.799C201.716 466.919 203.089 465.118 204.57 463.407C205.454 464.016 206.383 464.553 207.349 465.019C208.294 465.436 209.351 464.713 210.129 464.074C219.385 456.791 269.309 394.581 280.011 365.228C284.875 351.829 291.352 333.317 293.187 320.196C294.308 311.901 294.412 303.5 293.492 295.179C293.492 295.061 293.539 294.948 293.622 294.864C293.706 294.781 293.819 294.734 293.937 294.734C294.055 294.734 294.169 294.781 294.253 294.864C294.336 294.948 294.382 295.061 294.382 295.179C295.774 303.546 296.045 312.064 295.188 320.502C293.131 338.709 278.76 376.652 271.088 390.606C277.704 389.383 291.157 386.715 297.662 384.769C319.344 378.181 339.358 358.529 341.109 336.458C341.676 326.06 341.676 315.64 341.109 305.242C340.921 290.887 339.056 276.604 335.549 262.684C341.442 259.488 346.835 255.735 348.586 252.288C352.339 244.922 342.415 202.532 340.247 190.634C352.116 191.941 372.325 194.304 381.748 186.937C392.533 178.265 415.827 153.859 429.198 135.096ZM199.177 467.854C194.174 464.824 187.169 457.625 186.112 451.982C187.252 450.537 188.447 449.202 189.559 447.701C193.327 453.451 198.024 458.533 203.458 462.74C201.931 464.359 200.502 466.066 199.177 467.854ZM420.164 115.443C420.307 115.352 420.412 115.208 420.451 115.043C420.493 114.877 420.469 114.703 420.386 114.554C419.413 112.747 416.494 106.382 418.524 105.659C419.691 105.214 420.72 105.937 421.581 106.91C422.897 108.579 423.921 110.459 424.611 112.469C424.662 112.632 424.757 112.779 424.887 112.893C425.014 113.006 425.172 113.083 425.338 113.115C425.508 113.146 425.682 113.131 425.844 113.071C426.003 113.012 426.145 112.909 426.251 112.775C429.031 109.69 435.535 102.657 439.205 100.767C441.984 99.3212 442.651 101.99 435.841 108.216C434.277 109.409 432.774 110.68 431.338 112.024C431.259 112.134 431.215 112.265 431.215 112.4C431.215 112.534 431.259 112.666 431.338 112.775C431.338 113.498 431.922 114.304 432.922 113.553C435.339 111.432 437.894 109.473 440.567 107.688C441.931 106.719 443.518 106.107 445.181 105.909C444.347 108.466 436.592 115.416 435.925 116.194C435.714 116.384 435.584 116.649 435.566 116.932C435.549 117.216 435.642 117.495 435.827 117.71C436.015 117.925 436.277 118.058 436.559 118.082C436.844 118.105 437.124 118.016 437.342 117.834C440.428 115.833 445.82 111.163 447.683 111.858C449.545 112.553 444.013 117.723 442.624 118.946C434.646 125.867 436.703 121.42 427.474 130.815C423.458 126.415 418.845 122.597 413.77 119.474L420.164 115.443ZM299.385 248.397C298.913 244.561 298.329 240.419 297.606 236.11L298.802 234.526C304.361 227.382 306.029 216.013 305.501 207.09C308.475 220.127 310.838 232.942 312.645 245.673L299.385 248.397ZM258.051 153.22C250.741 147.66 238.982 138.07 232.144 131.51L243.263 125.951C253.474 135.488 262.214 146.485 269.198 158.584C279.879 178.205 287.801 199.204 292.742 220.989L253.103 164.922L258.274 154.193C258.343 154.027 258.357 153.845 258.318 153.671C258.278 153.496 258.186 153.339 258.051 153.22ZM276.842 121.698C277.009 122.004 278.927 126.09 281.845 133.234C281.845 133.539 281.317 140.489 281.067 142.935C277.519 141.529 274.173 139.659 271.116 137.375C271.727 134.957 274.479 123.977 274.674 121.503L276.842 121.698ZM266.974 151.552C267.169 151.051 267.363 150.384 267.586 149.606L269.448 150.579C270.504 151.274 270.087 149.161 271.032 155.277C271.032 156.305 271.31 157.445 271.366 158.696C270.087 156.389 268.503 153.915 267.002 151.552H266.974ZM265.417 149.217C260.166 141.768 254.187 134.859 247.572 128.591L268.503 137.681C267.697 139.599 266.529 145.464 265.445 149.217H265.417ZM286.793 165.506C284.014 157.917 281.873 149.439 280.817 147.215C280.88 146.522 280.88 145.824 280.817 145.131C281.22 145.28 281.639 145.374 282.068 145.409C282.337 145.412 282.596 145.318 282.8 145.144C283.006 144.971 283.14 144.729 283.18 144.464C283.402 143.546 283.763 138.904 283.819 137.876C291.906 158.291 298.656 179.211 304.027 200.502C288.322 167.09 290.741 176.764 286.821 165.506H286.793ZM309.782 218.57C303.444 188.188 292.297 150.301 279.622 122.226C284.278 122.229 288.925 122.6 293.52 123.338C295.883 144.464 293.909 143.741 295.494 144.575C297.078 145.409 306.613 149.245 308.03 149.828C307.891 151.969 309.893 213.178 309.809 218.57H309.782ZM277.787 72.7195C279.237 75.8818 279.747 79.3933 279.26 82.8376C279.033 83.7145 278.57 84.511 277.917 85.1387C277.264 85.7669 276.451 86.2015 275.566 86.3946C274.683 86.5877 273.761 86.5316 272.906 86.2324C272.052 85.9332 271.299 85.4025 270.727 84.7C269.399 81.9061 268.403 78.9677 267.752 75.9439C268.503 74.971 276.508 73.0252 277.787 72.7195ZM239.538 100.516C238.524 100.054 237.484 99.6462 236.425 99.2934C235.714 99.0013 235.082 98.5505 234.572 97.9753C234.062 97.4002 233.692 96.7164 233.488 95.9755C233.284 95.2351 233.252 94.4577 233.395 93.7027C233.539 92.9481 233.852 92.236 234.313 91.6214C236.064 90.1482 237.648 90.2316 239.094 92.4276C240.011 94.1232 239.983 94.2622 240.4 94.4289C240.521 94.4815 240.65 94.5083 240.78 94.5068C240.91 94.5053 241.039 94.4759 241.158 94.4209C241.276 94.3658 241.383 94.2854 241.466 94.1864C241.551 94.0873 241.614 93.971 241.651 93.8452C242.063 92.1056 242.128 90.3013 241.845 88.536C241.512 86.618 241.456 78.1121 241.512 77.8341C242.325 78.2622 243.235 78.4638 244.153 78.4179C249.184 78.2233 250.185 75.6381 252.186 73.5256C254.493 73.7479 254.966 74.8598 257.579 73.5256C258.802 72.8296 259.925 71.9695 260.914 70.9683C261.713 71.2952 262.485 71.6859 263.221 72.1357C264.887 72.9368 266.766 73.1829 268.582 72.8377C270.398 72.4925 272.056 71.5742 273.312 70.2177C273.618 70.8015 273.896 71.3852 274.146 71.9967C271.591 72.7897 269.186 74.0012 267.03 75.5826C266.557 76.1663 267.252 79.3352 267.419 80.0857C265.091 80.3788 262.837 81.1046 260.775 82.226C260.358 80.7806 259.441 78.0843 257.996 77.3338C257.56 77.2008 257.097 77.2008 256.661 77.3338C254.16 77.7229 245.181 80.4192 244.097 81.8925C243.152 82.921 245.848 90.8709 246.682 92.1774C249.879 97.1253 259.246 95.6798 260.998 89.898C261.431 87.9578 261.431 85.9453 260.998 84.0051C261.804 84.0051 264.222 83.1434 264.5 83.06C266.418 87.3685 266.974 87.6187 269.198 92.2608C268.892 92.5109 268.392 92.9279 267.975 93.2059C266.001 94.5123 265.584 94.29 265.695 94.8459C265.728 94.9561 265.799 95.0511 265.897 95.1122C265.994 95.1739 266.11 95.1977 266.224 95.1795C267.391 95.0127 268.531 94.6953 269.615 94.2344C270.264 93.9923 270.798 93.5162 271.116 92.9001C271.894 91.1489 267.586 84.561 265.89 82.5874C266.224 82.5874 267.002 82.0315 267.586 81.7257C268.364 84.839 268.892 87.2851 271.894 88.5082C272.763 88.8357 273.687 88.9848 274.614 88.9469C275.54 88.9084 276.448 88.6836 277.287 88.2858C277.731 93.1781 277.648 101.128 275.313 105.464C274.118 107.716 271.171 108.578 269.281 110.44C268.725 110.968 269.087 111.719 269.281 112.525C272.367 121.114 272.422 121.086 272.255 122.198C271.438 126.813 270.296 131.365 268.836 135.819C268.142 135.513 260.331 131.371 245.042 125.423C244.57 122.282 242.04 105.52 241.234 102.434C241.29 101.35 241.151 101.1 239.538 100.378V100.516ZM258.996 89.1753C258.107 92.2052 253.909 93.5116 250.907 92.6777C247.905 91.8438 247.711 90.315 246.293 86.7014C245.628 85.3211 245.17 83.8504 244.931 82.3372C245.848 81.3365 255.883 79.2796 257.134 79.085C258.888 82.0866 259.548 85.6036 258.996 89.0363V89.1753ZM150.227 256.069C149.171 257.097 150.588 260.461 150.81 263.379C150.81 263.629 150.81 264.714 150.643 264.797C149.115 265.297 147.697 262.99 146.835 261.6C145.973 260.21 145.112 258.32 143.75 258.821C140.97 260.127 134.521 268.689 131.992 269.578C130.713 267.132 138.024 260.155 138.274 259.766C138.381 259.587 138.437 259.381 138.436 259.175C138.435 258.967 138.377 258.76 138.269 258.585C138.159 258.406 138.004 258.263 137.819 258.165C137.633 258.07 137.426 258.029 137.218 258.042C136.718 258.042 136.384 258.487 135.605 259.182C133.238 261.492 130.528 263.423 127.572 264.908C130.252 261.832 133.121 258.927 136.161 256.208C136.312 256.052 136.417 255.86 136.467 255.652C136.467 255.652 135.884 254.178 134.744 254.762C133.132 255.652 125.292 260.183 122.819 261.35C122.485 261.128 122.68 260.794 122.819 260.461C126.738 255.652 135.356 249.814 140.636 246.117C141.257 245.478 141.773 244.748 142.165 243.949C145.823 247.352 149.725 250.484 153.84 253.317C152.573 254.149 151.365 255.068 150.227 256.069ZM214.91 281.336C214.299 280.947 213.854 280.586 213.77 280.085C212.242 268.744 220.748 204.477 220.609 201.948C220.609 201.799 220.579 201.653 220.521 201.516C220.465 201.379 220.379 201.255 220.273 201.152C220.166 201.048 220.041 200.967 219.902 200.912C219.766 200.858 219.617 200.832 219.469 200.836C218.051 200.836 220.553 200.836 185.14 234.748C182.805 236.944 164.959 254.012 161.985 255.151C157.898 254.846 142.527 242.587 140.025 238.723C144.862 228.939 203.513 148.439 223.805 136.124C225.362 135.179 228.03 133.706 230.949 132.15C231.959 133.102 233.045 133.966 234.201 134.735C240.65 140.85 249.629 148.466 256.439 154.193L251.13 164.728C251.049 164.867 251.007 165.025 251.007 165.187C251.007 165.347 251.049 165.505 251.13 165.645C294.243 227.493 293.604 226.798 293.882 226.798C296.645 241.091 298.364 255.564 299.024 270.106C299.024 274.026 299.024 273.692 299.191 273.414C299.358 273.136 299.191 273.609 299.191 273.609C292.464 280.947 225.89 287.785 214.91 281.336ZM368.572 189.245C355.98 190.996 341.748 188.383 338.996 188.272C337.467 180.862 334.419 173.849 330.046 167.674C329.978 167.584 329.881 167.522 329.77 167.502C329.661 167.482 329.548 167.503 329.453 167.563C329.358 167.623 329.288 167.716 329.258 167.824C329.23 167.932 329.242 168.048 329.295 168.147C330.907 171.427 336.3 185.575 337.634 189.022C337.217 190.356 350.198 244.033 346.529 251.26C343.249 257.792 324.153 266.02 317.259 268.383C315.897 252.907 313.669 237.521 310.588 222.295C311.533 214.29 310.31 166.701 309.948 149.106C309.937 148.902 309.869 148.704 309.752 148.537C309.633 148.369 309.471 148.239 309.281 148.161L296.8 142.907C296.745 136.301 296.326 129.703 295.549 123.143C326.71 128.536 363.013 146.354 366.043 146.382C370.435 146.382 403.068 121.364 409.823 120.364C412.825 119.891 425.723 131.149 427.224 134.262C414.048 152.664 390.893 176.847 380.164 185.214C376.708 187.525 372.717 188.913 368.572 189.245Z" fill="#151101"/>
<path d="M256.13 83.6163C256.095 83.4339 256.026 83.26 255.924 83.1049C255.822 82.9492 255.69 82.8153 255.537 82.7107C255.382 82.6066 255.21 82.5333 255.027 82.4954C254.847 82.4575 254.659 82.4559 254.476 82.4908C254.293 82.5252 254.12 82.5954 253.964 82.6975C253.809 82.7996 253.675 82.9305 253.57 83.0842C253.466 83.2378 253.392 83.4107 253.355 83.5926C253.318 83.7745 253.315 83.9621 253.35 84.1445C253.906 86.9242 254.017 87.5635 255.241 87.5635C255.472 87.564 255.699 87.5074 255.903 87.3983C256.107 87.2886 256.281 87.1304 256.405 86.9368C256.533 86.7438 256.61 86.5219 256.63 86.2914C256.649 86.061 256.612 85.8295 256.519 85.6177C256.436 85.173 256.186 83.8665 256.13 83.6163ZM264.636 102.018C266.443 102.546 268.166 101.684 268.111 101.24C268.055 100.795 268.111 101.017 265.664 100.1C264.024 99.4885 262.218 97.3203 261.578 97.6538C260.939 97.9874 261.912 99.7664 262.134 100.1C262.73 101.002 263.61 101.678 264.636 102.018ZM315.477 75.6108C311.835 90.8714 309.167 103.825 308.722 106.41C308.425 107.534 308.37 108.709 308.555 109.857C310.028 112.998 329.069 119.197 331.488 117.973C333.906 116.75 340.188 102.602 347.499 88.0083C351.977 88.1513 356.459 87.8253 360.869 87.0354C365.514 86.1833 370.033 84.7545 374.323 82.7824C383.718 78.4461 394.003 59.8777 395.393 50.5379C396.435 40.3975 394.288 30.185 389.25 21.3233C365.928 -19.1215 297.52 2.64361 303.079 47.5636C304.666 57.8419 308.944 67.5183 315.477 75.6108ZM332.433 108.717C332.433 109.162 331.933 109.106 329.653 108.717C324.99 108.131 320.476 106.689 316.338 104.464C314.393 103.408 313.864 103.185 314.059 102.713C314.254 102.24 314.671 102.407 317.673 103.241C317.951 103.241 326.568 106.021 329.042 106.882C332.238 108.328 332.433 108.328 332.433 108.717ZM331.933 63.4913C334.9 63.6449 337.858 63.0329 340.522 61.7123C342.996 62.9111 345.673 63.6374 348.416 63.8527C343.746 72.5531 334.267 90.2876 331.21 99.7386L319.424 96.4864C322.204 89.6483 328.347 73.6372 331.877 63.4913H331.933ZM330.96 61.1841C328.884 60.8708 326.968 59.8853 325.509 58.3792C324.047 56.8726 323.121 54.9288 322.871 52.845C322.092 47.2856 325.65 41.0591 331.015 42.5323C334.379 43.4496 334.796 46.1182 334.212 49.4816C333.712 51.9277 331.905 58.0709 330.904 61.073L330.96 61.1841ZM338.52 54.5129C338.817 52.6939 339.5 50.9594 340.522 49.426C341.008 48.5901 341.72 47.9073 342.574 47.4554C343.429 47.0031 344.393 46.7999 345.358 46.8687C347.415 47.4802 348.305 51.3718 346.609 53.8179C344.978 55.9805 342.952 57.8111 340.633 59.2106C339.834 58.7426 339.199 58.0416 338.812 57.2016C338.425 56.3621 338.303 55.4236 338.465 54.5129H338.52ZM312.975 19.1829C325.428 4.20024 348.861 -1.74832 365.789 4.42262C374.986 7.5794 382.72 13.9711 387.554 22.4073C392.347 30.8398 394.397 40.5542 393.42 50.2043C392.141 58.8492 382.301 76.8061 373.656 80.7811C365.752 84.3866 357.128 86.1358 348.444 85.8957C347.499 85.8957 346.498 85.8957 346.137 86.5628C344.497 89.8985 341.495 96.3474 338.548 102.407C336.512 101.425 334.404 100.606 332.238 99.961C335.463 90.7324 345.636 72.6087 350.473 63.8249C354.663 64.1837 358.877 63.4564 362.704 61.7123C363.737 61.168 364.594 60.3401 365.175 59.3253C365.754 58.3109 366.035 57.1521 365.979 55.9846C365.924 54.8176 365.535 53.6906 364.863 52.7354C364.189 51.7807 363.257 51.0372 362.176 50.5935C357.867 48.4809 354.003 53.54 351.752 57.7929C351.14 58.9048 350.445 60.2113 349.667 61.6845C347.418 61.5369 345.201 61.0785 343.079 60.3224C345.192 58.8366 347.068 57.0373 348.639 54.9854C349.519 53.6562 349.964 52.0869 349.915 50.4939C349.864 48.9004 349.322 47.3619 348.361 46.0904C347.605 45.2135 346.556 44.6419 345.41 44.4832C344.263 44.3245 343.098 44.5898 342.134 45.2287C340.186 46.4249 338.627 48.1575 337.64 50.2185C336.655 52.2795 336.285 54.5816 336.575 56.8478C336.876 58.127 337.566 59.2823 338.548 60.1557C336.725 60.9107 334.768 61.2893 332.794 61.2675C333.906 57.9875 335.713 52.0667 336.185 49.6484C336.482 48.2697 336.547 46.8515 336.38 45.451C336.165 44.2492 335.606 43.1348 334.772 42.2422C333.941 41.3492 332.866 40.7169 331.682 40.4198C324.928 38.5018 319.952 45.9792 320.925 52.9562C321.198 55.4564 322.273 57.8015 323.985 59.6442C325.697 61.4869 327.958 62.7286 330.431 63.1855C326.873 73.1925 321.314 89.3425 318.534 96.2362L312.419 94.6518C316.338 74.9715 316.811 75.444 316.255 75.1938C309.938 67.1413 305.898 57.5422 304.552 47.3968C303.897 42.3661 304.309 37.2539 305.759 32.3932C307.209 27.532 309.67 23.0309 312.975 19.1829ZM351.557 61.8513C353.503 58.3211 357.395 50.5935 361.175 52.4837C361.93 52.7884 362.59 53.2938 363.079 53.9453C363.57 54.5968 363.871 55.3695 363.955 56.1807C363.899 61.073 356.283 61.9347 351.446 61.8513H351.557ZM457.964 74.1098C461.314 72.1397 465.27 71.467 469.083 72.2196C473.271 72.2944 477.272 73.9688 480.265 76.8996C483.26 79.8304 485.013 83.7948 485.175 87.9805C482.658 86.5194 479.713 85.9695 476.838 86.4238C469.861 87.0354 460.744 90.8158 461.967 97.5427C462.968 103.102 470.306 102.352 475.866 100.851C481.425 99.3495 485.842 96.6254 486.984 91.2605C493.737 96.1806 495.323 104.798 495.601 113.22C495.601 113.338 495.647 113.451 495.733 113.535C495.814 113.618 495.93 113.665 496.046 113.665C496.162 113.665 496.279 113.618 496.359 113.535C496.445 113.451 496.491 113.338 496.491 113.22C496.683 103.797 494.99 94.5684 487.288 89.2036C487.368 86.7903 486.954 84.3861 486.08 82.136C485.205 79.8865 483.876 77.8381 482.188 76.1147C480.496 74.3918 478.471 73.0302 476.238 72.1119C474.006 71.1941 471.608 70.7387 469.194 70.7741C465.335 70.2106 461.402 71.0172 458.075 73.0535C457.047 73.5538 457.52 74.3044 457.964 74.1098ZM483.315 94.0402C480.174 98.1542 471.279 100.295 467.165 99.5996C465.636 99.3495 464.385 98.7101 464.052 97.1257C463.051 91.5663 472.641 88.5364 478.367 88.3419C480.698 88.1629 483.022 88.7593 484.983 90.0375C484.771 91.491 484.2 92.8677 483.315 94.0402ZM445.233 41.615C448.207 37.9458 446.206 31.5526 437.895 31.5248C434.67 31.5248 433.114 34.8048 433.336 37.9458C433.836 45.4232 442.259 45.2009 445.233 41.615ZM435.282 37.8068C435.282 35.9723 436.144 33.5817 438.062 33.6095C442.537 33.6095 444.594 35.6943 444.594 38.0014C444.483 43.2551 434.921 45.9792 435.282 37.8068ZM434.142 352.942C409.709 343.185 398.367 390.412 378.409 430.996C378.282 432.701 378.339 434.417 378.576 436.11C378.576 440.363 379.048 468.522 381.522 471.718C382.19 472.997 384.997 471.718 386.303 470.912C397.399 464.044 407.855 456.192 417.547 447.452C417.631 447.357 417.691 447.248 417.73 447.127C417.767 447.007 417.781 446.882 417.77 446.757C422.94 439.391 442.315 401.031 447.012 381.795C450.292 368.174 447.04 358.029 434.142 352.942ZM442.87 388.244C429.79 386.567 417.142 382.437 405.595 376.069C412.099 363.755 420.133 349.717 433.392 354.999C448.152 360.864 447.846 373.011 442.87 388.161V388.244ZM396.616 460.516C395.762 459.801 394.83 459.185 393.837 458.682C390.079 456.773 385.741 456.354 381.689 457.514C381.411 454.206 379.827 432.691 379.827 432.497C400.647 440.113 394.226 436.805 414.851 447.062C412.683 449.119 404.538 454.818 396.616 460.461V460.516ZM410.959 380.072C413.669 381.552 416.454 382.898 419.299 384.102C412.926 394.109 407.297 404.572 402.454 415.402C397.784 425.158 397.95 425.103 393.197 435.749C390.417 434.86 387.638 434.026 384.858 433.192C387.86 427.215 409.208 383.518 410.959 380.016V380.072ZM394.281 436.027C403.315 419.821 412.516 399.669 420.41 384.464C423.19 385.631 425.97 386.576 428.75 387.41C427.276 390.19 422.968 397.584 421.828 399.724C420.688 401.865 409.264 424.38 408.458 426.104C407.179 428.883 403.677 436.639 402.593 439.113C399.757 437.862 397.033 436.917 394.17 435.971L394.281 436.027ZM403.593 439.474C405.289 436.388 412.266 423.435 413.128 421.767C414.434 419.182 429 389.411 429.806 387.688C432.363 388.411 435.059 389.022 436.783 389.356C431.696 403.254 417.047 430.023 411.766 443.226C406.957 440.975 405.873 440.419 403.482 439.418L403.593 439.474ZM405.289 376.875L410.265 379.655C400.237 396.731 391.504 414.533 384.135 432.914L379.966 431.635C396.116 397.222 396.866 392.719 405.178 376.819L405.289 376.875ZM416.741 445.645L412.544 443.643C417.075 434.748 431.251 411.927 437.728 389.55C439.285 389.828 440.813 390.079 442.287 390.273C435.143 409.333 426.567 427.825 416.63 445.589L416.741 445.645ZM329.653 463.685C330.76 462.768 331.552 461.526 331.916 460.134C332.28 458.742 332.199 457.271 331.682 455.93C331.446 453.993 330.559 452.193 329.164 450.829C327.77 449.465 325.952 448.615 324.01 448.423C322.069 448.228 320.119 448.7 318.483 449.761C316.846 450.822 315.618 452.411 315.004 454.262C311.446 451.955 307.582 449.509 303.885 447.174C306.665 443.477 314.837 445.117 315.671 448.147C315.69 448.265 315.755 448.371 315.85 448.441C315.947 448.51 316.068 448.54 316.185 448.522C316.304 448.503 316.408 448.439 316.48 448.344C316.549 448.246 316.579 448.126 316.561 448.008C316.144 443.171 306.081 440.336 302.023 446.034C298.437 443.838 293.99 441.17 290.265 439.14C293.461 436.361 300.605 437.917 301.384 440.808C301.421 440.908 301.49 440.989 301.583 441.042C301.673 441.093 301.782 441.111 301.884 441.091C301.988 441.07 302.081 441.014 302.148 440.931C302.213 440.85 302.248 440.745 302.245 440.641C301.884 436.138 292.572 433.108 288.347 438.056C286.577 437.065 284.714 436.245 282.787 435.61C282.435 435.464 282.048 435.423 281.673 435.492C281.298 435.562 280.95 435.737 280.675 435.999C273.642 444.755 249.931 467.493 238.979 470.134C238.704 470.176 238.444 470.289 238.226 470.463C238.009 470.637 237.842 470.864 237.74 471.123C237.638 471.383 237.606 471.665 237.648 471.939C237.692 472.214 237.805 472.474 237.979 472.691C240.383 475.133 243.137 477.204 246.151 478.834C243.371 481.614 241.203 484.116 239.591 485.923C238.757 486.812 238.312 503.824 239.035 507.579C239.141 507.943 239.38 508.261 239.702 508.469C243.204 510.859 288.319 530.373 292.933 527.76C296.019 526.006 332.85 487.674 333.434 486.506C334.323 484.672 334.017 472.441 333.962 467.549C333.739 466.076 330.987 464.491 329.653 463.685ZM240.703 500.408V494.206C252.238 499.766 278.646 511.107 288.653 514.276C291.21 515.11 291.432 514.998 292.767 514.276C300.411 509.383 327.402 478.973 332.349 474.331V480.197C317.339 495.237 291.849 521.589 291.377 520.088C288.625 519.921 243.093 501.519 240.703 500.408ZM328.958 454.318C329.956 456.001 330.494 457.919 330.515 459.877C330.506 460.5 330.353 461.112 330.068 461.668C329.783 462.221 329.375 462.703 328.875 463.074C326.54 461.517 322.12 458.626 316.894 455.235C319.757 449.592 326.123 449.509 328.847 454.318H328.958ZM240.008 472.108C251.849 468.605 274.337 446.924 281.898 437.528C283.716 438.036 285.472 438.754 287.124 439.668C284.344 444.839 287.318 450.509 288.375 449.703C288.958 449.258 287.902 449.092 287.735 446.368C287.663 444.378 288.115 442.404 289.042 440.641C292.878 442.643 297.381 445.256 301.189 447.452C298.854 452.65 301.662 457.792 302.634 457.042C303.607 456.291 302.19 456.458 302.023 453.734C301.956 451.948 302.296 450.169 303.024 448.536C306.943 450.843 310.946 453.233 314.615 455.485C314.05 456.87 313.825 458.371 313.959 459.861C314.096 461.35 314.587 462.787 315.393 464.046C315.43 464.093 315.474 464.134 315.528 464.165C315.579 464.193 315.636 464.213 315.694 464.22C315.755 464.227 315.815 464.225 315.873 464.209C315.931 464.193 315.984 464.167 316.033 464.13C316.079 464.093 316.121 464.049 316.148 463.995C316.179 463.944 316.199 463.887 316.206 463.827C316.213 463.768 316.211 463.708 316.195 463.65C316.179 463.593 316.153 463.537 316.116 463.491C315.616 462.386 315.37 461.183 315.393 459.972C315.417 458.76 315.711 457.57 316.255 456.486C322.732 460.433 327.958 463.741 329.57 464.825C329.264 465.103 300.272 490.898 290.404 498.573C283.927 496.875 249.931 480.002 240.008 472.108ZM241.064 487.591C253.656 493.15 282.259 506.048 288.847 507.301C289.987 507.524 290.432 507.604 292.6 505.881C301.856 498.462 331.96 466.965 332.238 467.299C332.252 467.382 332.252 467.465 332.238 467.549V473.108C326.04 478.084 291.571 514.276 291.015 512.552C288.236 512.552 243.065 494.125 240.758 493.094C240.703 491.927 240.953 488.814 241.064 487.591ZM291.682 525.895C288.903 527.482 246.568 510.273 240.897 506.771C240.684 504.997 240.582 503.218 240.592 501.434C252.767 507.438 288.18 522.392 291.432 522.256C296.186 522.003 329.792 484.172 332.183 481.531C332.211 482.951 332.069 484.369 331.766 485.756C331.293 486.673 293.517 524.869 291.682 525.895ZM61.3831 369.203C61.5777 372.177 61.7167 374.762 61.7167 377.181C61.7167 377.549 61.8632 377.903 62.1235 378.163C62.3843 378.425 62.7376 378.571 63.1065 378.571C63.4749 378.571 63.8287 378.425 64.089 378.163C64.3498 377.903 64.4964 377.549 64.4964 377.181C64.4964 374.596 64.3574 372.038 64.1628 369.008C64.137 368.64 63.9657 368.297 63.6867 368.054C63.4077 367.811 63.0443 367.69 62.6754 367.716C62.307 367.741 61.9638 367.913 61.7212 368.191C61.4786 368.471 61.3573 368.835 61.3831 369.203ZM484.927 313.47C484.745 313.482 484.569 313.528 484.402 313.607C484.24 313.688 484.093 313.799 483.977 313.938C483.856 314.074 483.765 314.235 483.709 314.406C483.654 314.58 483.634 314.763 483.649 314.943C483.815 317.501 483.982 320.252 483.982 322.921C483.982 323.289 484.129 323.644 484.392 323.903C484.649 324.165 485.003 324.311 485.372 324.311C485.741 324.311 486.095 324.165 486.353 323.903C486.615 323.644 486.762 323.289 486.762 322.921C486.762 320.141 486.595 317.362 486.398 314.749C486.388 314.568 486.342 314.39 486.262 314.228C486.181 314.063 486.07 313.917 485.933 313.799C485.797 313.679 485.635 313.588 485.463 313.533C485.291 313.477 485.109 313.454 484.927 313.47ZM54.1837 362.282C54.5521 362.282 54.9059 362.135 55.1662 361.874C55.4269 361.614 55.5735 361.26 55.5735 360.892C55.5735 360.523 55.4269 360.169 55.1662 359.91C54.9059 359.648 54.5521 359.502 54.1837 359.502C50.8202 359.502 48.0127 359.752 45.233 359.696C44.8616 359.696 44.5052 359.842 44.2404 360.102C43.9751 360.362 43.8224 360.716 43.8154 361.086C43.8154 361.455 43.9619 361.809 44.2222 362.068C44.483 362.33 44.8363 362.476 45.2052 362.476C48.0683 362.532 51.2094 362.421 54.1837 362.282ZM476.31 305.242C472.975 305.242 470.167 305.437 467.36 305.464C466.991 305.464 466.637 305.611 466.378 305.872C466.116 306.132 465.97 306.486 465.97 306.854C465.97 307.223 466.116 307.577 466.378 307.836C466.637 308.098 466.991 308.244 467.36 308.244C470.362 308.244 473.475 308.244 476.477 308.022C476.845 307.999 477.191 307.832 477.436 307.556C477.679 307.28 477.804 306.917 477.784 306.549C477.76 306.18 477.593 305.835 477.318 305.59C477.04 305.344 476.679 305.219 476.31 305.242ZM60.6326 345.103C60.7994 347.66 60.9661 350.412 60.9661 353.081C60.9732 353.447 61.1218 353.796 61.3811 354.056C61.6398 354.315 61.9896 354.464 62.356 354.471C62.7244 354.471 63.0782 354.325 63.3385 354.063C63.5993 353.803 63.7458 353.449 63.7458 353.081C63.7458 350.301 63.5791 347.521 63.4123 344.908C63.3865 344.54 63.2152 344.197 62.9362 343.954C62.6572 343.711 62.2938 343.59 61.9249 343.616C61.5564 343.641 61.2133 343.813 60.9707 344.091C60.7281 344.371 60.6068 344.735 60.6326 345.103ZM486.009 298.821C486.009 296.041 485.842 293.262 485.65 290.649C485.625 290.28 485.453 289.938 485.175 289.694C484.897 289.451 484.533 289.331 484.164 289.356C483.795 289.382 483.452 289.553 483.209 289.831C482.966 290.111 482.845 290.475 482.87 290.843C483.037 293.401 483.204 296.152 483.204 298.821C483.204 299.189 483.351 299.544 483.613 299.803C483.871 300.065 484.225 300.211 484.594 300.211C484.963 300.211 485.322 300.065 485.584 299.805C485.852 299.546 486.004 299.191 486.009 298.821ZM81.1468 361.92C81.3292 361.913 81.5086 361.869 81.6744 361.793C81.8402 361.717 81.9898 361.607 82.1136 361.473C82.2374 361.339 82.334 361.184 82.3966 361.01C82.4598 360.839 82.4886 360.658 82.481 360.475C82.4527 360.111 82.2885 359.771 82.0201 359.523C81.7522 359.277 81.4005 359.14 81.0356 359.14C77.6721 359.279 74.8646 359.391 72.0572 359.335C71.6882 359.335 71.3349 359.481 71.0741 359.743C70.8139 360.002 70.6673 360.356 70.6673 360.725C70.6673 361.093 70.8139 361.448 71.0741 361.707C71.3349 361.969 71.6882 362.115 72.0572 362.115C75.0314 362.17 78.1447 362.059 81.1468 361.92ZM503.273 304.881C500.494 305.02 497.406 305.103 494.323 305.103C494.141 305.096 493.959 305.126 493.782 305.191C493.61 305.256 493.459 305.356 493.322 305.481C493.191 305.608 493.085 305.761 493.014 305.93C492.943 306.099 492.903 306.282 492.903 306.465C492.903 306.836 493.049 307.192 493.312 307.459C493.57 307.723 493.923 307.876 494.292 307.883C497.461 307.883 500.019 307.883 503.385 307.66C503.567 307.653 503.743 307.609 503.91 307.533C504.077 307.457 504.229 307.348 504.35 307.214C504.476 307.079 504.572 306.924 504.633 306.75C504.699 306.579 504.724 306.398 504.719 306.215C504.683 305.854 504.517 305.518 504.249 305.272C503.986 305.024 503.637 304.885 503.273 304.881ZM17.269 279.558C17.6304 279.836 96.0182 268.216 99.3816 266.159C99.5681 266.023 99.7167 265.842 99.8137 265.634C99.9108 265.425 99.9537 265.194 99.9376 264.964C99.9376 261.378 95.2399 227.716 92.9883 219.321C92.7103 218.293 92.4324 217.264 91.793 216.903C87.5401 214.346 12.5992 228.467 8.12384 231.358C8.00265 231.429 7.89773 231.527 7.81641 231.64C7.73489 231.756 7.67884 231.886 7.65124 232.025C6.70615 235.388 14.8507 277.89 17.269 279.558ZM9.34691 232.692C14.6839 230.273 82.7034 217.82 90.4866 218.793C92.3768 223.658 97.4358 259.294 97.7694 264.519C93.9056 265.659 18.3254 278.64 18.0474 278.696C17.7694 278.751 17.7416 279.085 17.1579 277.334C14.7117 269.995 9.20793 238.974 9.34691 232.692Z" fill="#28412E"/>
<path d="M105.498 268.634C105.649 268.353 105.717 268.034 105.692 267.716C105.692 263.297 99.3547 214.235 97.1032 210.316C96.9268 210.027 96.6771 209.79 96.3789 209.628C96.0813 209.467 95.7462 209.388 95.4076 209.398C86.0956 208.259 7.54126 223.603 2.37102 227.188C1.64829 227.689 1.75948 228.94 1.84287 230.274C2.28762 237.584 10.182 285.673 12.9617 285.395C13.2674 285.395 13.1562 285.173 12.4335 286.646C8.0972 295.569 -0.130715 324.144 0.0360667 329.898C0.0360667 332.317 0.592008 335.458 2.98255 335.291C20.1333 333.178 104.219 319.836 128.403 314.86C129.348 314.666 129.959 313.804 129.931 312.386C129.646 310.023 128.93 307.734 127.819 305.631C124.428 299.266 110.362 274.054 105.498 268.634ZM13.1285 284.534C10.9603 281.754 2.98255 233.86 3.59408 228.55C9.70942 225.382 87.2075 210.399 95.3242 211.622C97.5479 217.737 103.302 261.907 103.663 267.216C93.8231 270.607 25.6927 281.615 13.1285 284.534ZM14.3515 285.368C16.6865 284.784 96.2137 271.469 103.496 269.551C107.471 273.248 125.428 305.187 126.596 307.911C110.64 310.691 15.9915 326.507 2.06525 328.62C2.25983 320.197 10.9047 290.76 14.3515 285.368Z" fill="#151101"/>
<path d="M24.8064 314.193C27.2247 313.832 78.5379 307.661 97.0785 302.63C97.1928 302.6 97.2908 302.526 97.3509 302.426C97.4106 302.324 97.4278 302.201 97.3984 302.088C97.3686 301.974 97.2953 301.875 97.1933 301.816C97.0917 301.756 96.9704 301.738 96.8562 301.768C93.2147 302.518 48.7952 308.439 24.7508 313.332C24.6843 313.32 24.616 313.322 24.5511 313.341C24.4862 313.359 24.4263 313.392 24.376 313.438C24.3255 313.482 24.2861 313.538 24.2604 313.6C24.2349 313.663 24.2238 313.73 24.2282 313.797C24.2326 313.864 24.2521 313.931 24.2857 313.99C24.319 314.047 24.3654 314.098 24.421 314.135C24.4767 314.175 24.5405 314.2 24.6072 314.209C24.6739 314.219 24.742 314.214 24.8064 314.193ZM62.3045 120.781C61.2659 123.127 60.3931 125.542 59.6916 128.009C59.6501 128.404 59.7593 128.802 59.9974 129.121C62.8048 133.346 91.5747 165.785 99.0799 170.344C100.108 170.983 101.331 171.428 102.082 170.51C107.534 163.726 114.649 158.469 122.735 155.25C129.316 152.921 136.217 151.618 143.194 151.386C148.753 150.886 149.726 150.33 151.866 146.688C154.391 141.896 157.741 137.587 161.762 133.957C166.889 129.474 172.58 125.68 178.69 122.672C178.965 122.516 179.181 122.272 179.301 121.98C179.422 121.688 179.442 121.364 179.358 121.059C178.418 118.668 177.175 116.408 175.661 114.333C176.661 113.999 177.773 113.693 177.773 112.693C177.773 109.913 153.534 74.8329 146.807 68.2172C146.112 67.5223 145.112 66.605 144.194 66.6606C130.296 67.4389 116.759 80.5591 108.92 92.0115C99.9416 91.6779 94.132 90.8718 83.9028 95.1804C76.6811 98.2456 70.1705 102.769 64.7784 108.467C63.9445 109.329 58.2739 115.333 58.1905 115.806C58.1072 116.278 58.2739 116.278 62.3045 120.781ZM173.492 120.003C161.901 121.977 154.507 131.622 149.059 142.102C146.641 146.772 146.863 146.994 144.306 146.938C139.834 146.685 135.348 146.853 130.907 147.439C127.65 147.926 124.448 148.727 121.345 149.829C114.285 152.331 106.196 160.337 101.887 166.285C101.796 166.408 101.679 166.509 101.546 166.583C101.412 166.658 101.265 166.703 101.112 166.716C100.96 166.729 100.807 166.71 100.662 166.66C100.518 166.609 100.386 166.529 100.275 166.424C91.2412 157.112 75.2579 140.768 67.2246 131.372C66.8354 130.955 67.5025 130.344 67.8917 130.788C73.0897 136.348 86.5157 149.663 100.915 164.145C105.779 157.946 113.284 150.441 120.706 147.828C124.753 146.385 128.965 145.451 133.242 145.048C137.249 144.744 141.272 144.744 145.279 145.048C146.919 143.158 155.035 121.699 173.437 119.308C173.49 119.348 173.535 119.399 173.566 119.458C173.598 119.517 173.615 119.582 173.618 119.649C173.621 119.716 173.608 119.782 173.582 119.843C173.555 119.905 173.515 119.959 173.465 120.003H173.492ZM144.167 68.9122C149.726 72.8037 172.353 106.299 175.299 112.164C170.187 113.784 165.251 115.917 160.567 118.53C156.131 120.754 152.248 123.938 149.199 127.853C146.15 131.767 144.013 136.312 142.944 141.157C132.964 124.923 119.038 107.05 109.782 93.9017C110.338 93.5404 125.96 69.9962 144.167 68.9122ZM84.5143 96.7092C94.6602 92.623 100.275 93.5681 108.67 93.9295C117.009 108.162 131.992 128.231 141.859 141.379C132.752 139.224 123.168 140.542 114.98 145.076C110.06 147.856 104.056 154.527 100.359 158.669C95.0216 154.388 64.2225 121.588 59.2746 116.028C66.891 107.411 73.9236 100.934 84.5143 96.598V96.7092ZM33.6458 167.397C32.959 166.915 32.1468 166.643 31.3078 166.613C30.4689 166.583 29.6395 166.798 28.9203 167.23C28.3967 167.464 27.9237 167.798 27.5295 168.215C27.1346 168.631 26.826 169.121 26.6209 169.657C26.4156 170.192 26.3179 170.763 26.3334 171.336C26.3486 171.91 26.4768 172.474 26.7105 172.998C26.944 173.522 27.2788 173.995 27.6947 174.389C28.1112 174.784 28.6009 175.092 29.1366 175.298C29.6724 175.503 30.243 175.601 30.8166 175.585C31.3897 175.57 31.9547 175.442 32.4783 175.208C33.3153 175.025 34.0769 174.592 34.6617 173.966C35.2469 173.341 35.628 172.552 35.7543 171.705C35.8812 170.858 35.7473 169.992 35.3707 169.223C34.9942 168.453 34.3928 167.817 33.6458 167.397ZM31.8112 172.956C29.8654 173.568 28.6979 172.956 28.2254 172.011C27.3359 170.038 28.4478 167.008 31.3387 167.897C33.3678 168.648 35.0079 172.067 31.8112 173.095V172.956ZM174.993 40.1978C175.8 41.8378 179.552 41.2263 181.192 40.6982C182.054 40.4202 182.61 40.1144 182.693 39.2805C182.943 37.1957 183.221 19.1277 182.276 17.3765C182.179 17.1928 182.029 17.0422 181.846 16.9433C181.663 16.8444 181.455 16.8016 181.248 16.8206C178.282 16.8122 175.331 17.2433 172.492 18.0992C171.352 18.7942 173.993 38.3632 174.993 40.1978ZM173.075 18.7664C175.643 18.399 178.24 18.278 180.831 18.405C180.998 20.462 180.553 38.2798 180.525 38.5578C179.351 38.9788 178.097 39.1309 176.856 39.0026C176.661 38.3632 176.328 36.6398 175.911 34.4717C174.686 29.291 173.74 24.0482 173.075 18.7664ZM30.9495 143.936C31.2164 144.073 31.5115 144.144 31.8112 144.144C32.1109 144.144 32.4061 144.073 32.6729 143.936C33.7469 143.274 34.5985 142.306 35.119 141.157C35.1898 140.973 35.2115 140.774 35.1822 140.579C35.1529 140.384 35.0741 140.2 34.9523 140.045C33.618 138.46 19.0524 121.588 17.2734 122.644C15.089 124.058 13.0168 125.638 11.0747 127.369C10.9964 127.44 10.9336 127.525 10.8905 127.621C10.8474 127.717 10.825 127.82 10.8245 127.925C10.7689 129.371 26.9467 142.324 30.9495 143.936ZM17.6069 123.367C19.6361 124.84 26.4742 133.29 32.8119 140.768C32.5395 141.197 32.2019 141.581 31.8112 141.907C25.1478 137.643 18.7858 132.924 12.7703 127.786C14.2783 126.203 15.8944 124.726 17.6069 123.367ZM61.276 62.0463C61.8876 51.261 68.1697 46.2576 74.7298 44.9789C72.8674 51.817 73.1731 60.712 79.9278 61.8517C83.1522 62.3799 84.7367 60.712 87.0716 58.7662C97.0507 50.4271 88.9896 42.088 77.7318 42.6718C81.9292 31.1638 91.6303 21.7962 104.5 21.4905C104.618 21.4905 104.731 21.4437 104.815 21.3603C104.898 21.2767 104.945 21.1636 104.945 21.0457C104.945 20.9278 104.898 20.8145 104.815 20.7312C104.731 20.6478 104.618 20.601 104.5 20.601C90.6018 20.323 79.6776 30.3299 75.3691 42.8385C67.9473 44.1172 60.5811 49.6766 60.3865 61.8795C60.3754 61.9381 60.3759 61.9978 60.3885 62.0559C60.4007 62.114 60.4244 62.1691 60.4578 62.2186C60.4916 62.2677 60.5341 62.3096 60.5841 62.342C60.6337 62.3743 60.6898 62.397 60.7479 62.4077C60.8065 62.4188 60.8661 62.4178 60.9243 62.4056C60.9824 62.3935 61.0375 62.3698 61.087 62.3364C61.136 62.3025 61.178 62.2601 61.2103 62.21C61.2427 62.1605 61.2649 62.1049 61.276 62.0463ZM77.0925 44.6453C81.2343 44.3674 87.4052 45.646 89.1008 49.3986C90.0737 51.539 89.1008 54.1797 85.654 57.0706C84.718 58.0081 83.6506 58.8042 82.4851 59.4334C78.3156 61.2124 73.7013 56.0699 77.0925 44.6453ZM85.0424 437.779C82.3567 437.059 79.5548 436.885 76.8004 437.265C74.0459 437.644 71.3956 438.571 69.0051 439.991C66.6145 441.409 64.5318 443.292 62.8802 445.53C61.228 447.765 60.0398 450.308 59.3858 453.012C58.1511 458.627 59.1968 464.501 62.2934 469.343C65.39 474.186 70.2832 477.6 75.8972 478.835C81.5112 480.07 87.386 479.025 92.2282 475.928C97.0715 472.831 100.486 467.939 101.721 462.324C102.248 459.616 102.235 456.832 101.68 454.128C101.126 451.425 100.043 448.861 98.4926 446.579C96.9421 444.298 94.9553 442.345 92.6472 440.835C90.3385 439.324 87.7539 438.286 85.0424 437.779ZM93.6317 460.434C92.5163 464.881 89.8463 468.784 86.1043 471.434C82.3623 474.086 77.795 475.312 73.2287 474.888C69.0369 473.25 65.5568 470.186 63.4012 466.236C61.2457 462.284 60.5518 457.7 61.4428 453.29C62.4829 448.733 65.1282 444.703 68.8949 441.937C72.6617 439.171 77.2982 437.853 81.957 438.224C86.1902 439.973 89.6709 443.158 91.786 447.221C93.9011 451.284 94.5156 455.963 93.5205 460.434H93.6317Z" fill="#28412E"/>
<path d="M122.064 445.701C119.644 444.867 117.05 444.665 114.531 445.117C113.486 442.722 112.201 440.44 110.695 438.307C112.501 436.667 117.449 432.108 116.254 429.968C112 424.878 106.95 420.515 101.299 417.042C98.9395 415.72 96.3417 414.879 93.655 414.568C91.876 414.818 87.6503 421.74 86.7052 423.297C86.0937 423.297 83.926 422.602 83.7593 422.518C83.7593 420.517 83.1755 413.29 81.3687 412.456C79.3481 411.712 77.2502 411.198 75.1144 410.927C73.1408 410.621 55.3785 413.873 54.072 416.264C53.2103 417.876 55.2117 423.964 55.7954 425.659C54.2964 426.484 52.8565 427.413 51.4869 428.439C48.7072 430.413 49.4577 430.329 48.9574 430.107C48.3524 429.817 47.7045 429.63 47.0394 429.551C44.8187 428.249 42.2153 427.758 39.6732 428.161C37.1159 428.995 31.0839 442.727 30.111 446.257C29.7926 447.146 29.7067 448.103 29.8608 449.037C30.528 450.871 34.9755 452.344 36.8379 452.928C36.3234 456.505 36.3234 460.137 36.8379 463.713C34.3917 464.381 29.3044 465.882 29.5824 468.383C29.8603 470.885 36.3648 487.397 39.0611 488.703C40.5384 489.53 42.1719 490.037 43.8569 490.195C45.5419 490.352 47.241 490.158 48.8462 489.62C49.7499 489.168 50.6232 488.659 51.4591 488.091C52.571 488.925 53.7385 489.676 54.9337 490.399C54.072 492.539 52.154 497.32 52.7656 499.488C53.0713 500.63 53.9886 500.989 55.2673 501.464C58.7975 502.743 77.8107 507.302 80.7016 506.801C81.7857 506.635 82.3694 505.492 82.703 504.411C83.3206 501.939 83.684 499.418 83.7865 496.875C85.2143 496.734 86.634 496.522 88.04 496.239C88.8987 497.745 89.9969 499.109 91.2922 500.267C92.7099 501.267 93.9052 500.767 95.5174 499.741C96.2957 500.742 97.4632 502.132 98.7141 502.268C101.855 502.632 114.836 490.399 116.171 487.897C117.282 485.812 113.224 482.087 111.417 480.447C113.372 477.505 114.906 474.307 115.976 470.941C117.981 471.242 120.01 471.356 122.036 471.274C122.953 471.274 124.009 470.941 124.398 470.079C126.094 466.215 125.594 451.566 124.398 447.841C124.232 446.757 122.981 446.035 122.064 445.701ZM122.731 448.258C123.676 451.872 123.981 465.52 122.591 469.051C120.188 469.287 117.763 469.176 115.392 468.717C115.139 468.673 114.879 468.726 114.663 468.865C114.447 469.004 114.29 469.22 114.225 469.467C113.118 473.225 111.399 476.776 109.137 479.975C108.977 480.188 108.904 480.452 108.935 480.718C108.966 480.983 109.099 481.224 109.305 481.392C111.255 482.937 112.912 484.821 114.197 486.952C112.807 489.231 101.939 499.185 98.9364 500.019C98.4917 500.019 97.2686 498.351 96.9628 497.906C95.9359 496.36 95.008 494.758 94.1831 493.095C94.0629 492.852 93.8561 492.665 93.6045 492.569C93.3523 492.468 93.0728 492.468 92.8206 492.569C84.7594 495.597 81.7023 493.818 81.7023 495.819C81.7058 498.816 81.2176 501.793 80.2563 504.633C73.724 503.921 67.2918 502.485 61.0769 500.352C61.3771 497.381 62.2049 494.49 63.523 491.816C64.3569 489.954 61.0213 490.482 54.7948 484.144C54.5941 483.959 54.3313 483.855 54.0584 483.855C53.785 483.855 53.5222 483.959 53.3215 484.144C50.5418 486.424 46.9282 488.647 46.2055 488.286C44.7878 487.591 38.2555 472.775 37.8664 469.773C39.8435 468.395 42.088 467.447 44.4543 466.993C44.7065 466.922 44.9243 466.762 45.0678 466.542C45.2103 466.322 45.2695 466.058 45.2326 465.798C44.5513 461.863 44.5513 457.837 45.2326 453.901C45.275 453.658 45.224 453.41 45.0901 453.204C44.9556 452.998 44.7484 452.849 44.5099 452.789C42.414 452.24 40.3969 451.427 38.5057 450.371C37.8942 449.926 37.9498 449.954 38.0054 449.481C39.8046 442.993 42.6899 436.854 46.539 431.33C48.0401 430.913 52.0984 433.887 53.4883 434.944C53.6334 435.085 53.8279 435.163 54.0301 435.163C54.2328 435.163 54.4273 435.085 54.5724 434.944C55.8495 433.618 57.2247 432.393 58.6863 431.274C62.9115 428.078 64.0512 428.495 63.6898 427.383C62.4116 424.594 61.694 421.58 61.5772 418.515C62.0078 418.157 62.4971 417.876 63.0227 417.682C65.6179 416.656 68.2839 415.819 71.0004 415.18C74.2931 414.263 77.6773 413.711 81.0907 413.54C81.6745 413.79 82.2026 416.319 82.3416 417.098C83.3701 422.657 82.6752 423.797 83.4813 423.88C91.4034 424.659 93.0157 426.855 93.5716 425.882C95.1131 423.185 96.9098 420.644 98.9364 418.293C99.5202 417.709 99.4924 417.431 101.244 418.432C106.475 421.851 111.161 426.039 115.142 430.857C115.559 431.58 111.945 435.416 109.305 437.668C108.387 438.474 109.694 438.835 112.084 443.394C114.475 447.953 113.919 449.231 115.197 448.953C117.663 448.362 120.199 448.128 122.731 448.258ZM508.523 215.986C502.696 213.606 496.591 211.989 490.349 211.177C485.79 210.455 480.423 209.732 475.892 209.148C480.256 202.977 493.179 187.355 495.347 183.547C495.959 182.519 494.796 181.073 493.932 180.211C489.095 175.041 479.756 173.095 472.584 171.983C468.47 171.316 451.291 169.204 448.373 170.594C444.87 172.261 418.964 211.177 418.185 217.098C418.185 218.099 418.519 218.488 419.492 218.849C423.578 220.35 442.007 222.685 446.121 223.658C440.562 233.387 415.85 266.271 413.432 270.913C412.848 272.081 413.21 272.776 413.904 272.998C416.406 273.992 418.98 274.791 421.604 275.388C422.605 275.694 424.801 274.332 427.998 272.386C442.341 263.769 503.883 223.13 508.609 217.876C508.74 217.754 508.841 217.603 508.912 217.437C508.978 217.27 509.008 217.091 508.998 216.912C508.993 216.733 508.942 216.557 508.862 216.398C508.781 216.238 508.664 216.098 508.523 215.986ZM448.79 249.343C425.162 264.937 417.185 269.495 416.907 269.69C420.715 263.88 444.37 231.469 448.428 223.714C448.498 223.563 448.535 223.401 448.535 223.234C448.535 223.07 448.496 222.906 448.424 222.757C448.352 222.606 448.248 222.477 448.118 222.372C447.991 222.268 447.84 222.194 447.678 222.157C444.898 221.156 424.662 218.988 419.881 217.293C420.492 212.122 445.732 173.04 448.79 171.483C451.847 169.926 481.507 173.457 487.069 177.432C484.148 183.13 468.025 203.088 465.412 207.73C464.884 208.676 464.717 209.593 465.746 209.843C466.774 210.093 492.901 213.151 498.602 215.013C491.653 220.823 456.573 244.117 448.79 249.231V249.343ZM270.472 79.3915C270.472 79.6416 270.639 79.9474 271.056 81.5596C271.164 81.9094 271.405 82.203 271.727 82.3794C272.047 82.5553 272.425 82.6003 272.779 82.5047C273.133 82.4016 273.432 82.1621 273.608 81.8386C273.787 81.5157 273.828 81.1351 273.724 80.7813C273.446 79.6972 273.196 78.7799 273.029 78.3352C272.867 78.0299 272.598 77.7959 272.272 77.6792C271.948 77.5619 271.591 77.57 271.271 77.7019C270.951 77.8338 270.692 78.0799 270.546 78.3923C270.398 78.7046 270.37 79.0609 270.472 79.3915Z" fill="#28412E"/>
</svg>
