<svg width="840" height="70" viewBox="0 0 840 70" fill="none" xmlns="http://www.w3.org/2000/svg">
<path d="M0 16C0 7.16344 7.16344 0 16 0H824C832.837 0 840 7.16344 840 16H0Z" fill="#EDF6EE"/>
<path d="M0.507912 15.5C0.771864 7.17099 7.60689 0.5 16 0.5H824C832.393 0.5 839.228 7.17099 839.492 15.5H0.507912Z" stroke="#151101" stroke-opacity="0.48"/>
<path d="M0 16C0 7.16344 7.16344 0 16 0H168V16H0Z" fill="#2E2841"/>
<path d="M0 16H168V54C168 62.8366 160.837 70 152 70H16C7.16344 70 0 62.8366 0 54V16Z" fill="#2E2841"/>
<path d="M0.5 16.5H167.5V54C167.5 62.5604 160.56 69.5 152 69.5H16C7.43959 69.5 0.5 62.5604 0.5 54V16.5Z" stroke="#151101" stroke-opacity="0.48"/>
<path d="M5.28036 50V36.9091H10.5218C11.4849 36.9091 12.2882 37.0518 12.9316 37.3374C13.5751 37.6229 14.0588 38.0192 14.3826 38.5263C14.7065 39.0291 14.8684 39.6087 14.8684 40.2649C14.8684 40.7763 14.7662 41.2259 14.5616 41.6136C14.3571 41.9972 14.0758 42.3125 13.7179 42.5597C13.3642 42.8026 12.9593 42.9751 12.5034 43.0774V43.2053C13.002 43.2266 13.4686 43.3672 13.9032 43.6271C14.3422 43.8871 14.698 44.2514 14.9707 44.7202C15.2434 45.1847 15.3798 45.7386 15.3798 46.3821C15.3798 47.0767 15.2072 47.6967 14.862 48.2422C14.5211 48.7834 14.0162 49.2116 13.3471 49.527C12.6781 49.8423 11.8535 50 10.8734 50H5.28036ZM8.04812 47.7372H10.3045C11.0758 47.7372 11.6383 47.5902 11.992 47.2962C12.3457 46.9979 12.5226 46.6016 12.5226 46.1072C12.5226 45.745 12.4352 45.4254 12.2605 45.1484C12.0858 44.8714 11.8365 44.6541 11.5126 44.4964C11.193 44.3388 10.8116 44.2599 10.3684 44.2599H8.04812V47.7372ZM8.04812 42.3871H10.1C10.4792 42.3871 10.8159 42.321 11.1099 42.1889C11.4082 42.0526 11.6426 41.8608 11.813 41.6136C11.9877 41.3665 12.0751 41.0703 12.0751 40.7251C12.0751 40.2521 11.9068 39.8707 11.5701 39.581C11.2377 39.2912 10.7647 39.1463 10.1511 39.1463H8.04812V42.3871ZM19.9293 50.1854C19.3029 50.1854 18.7447 50.0767 18.2546 49.8594C17.7646 49.6378 17.3768 49.3118 17.0913 48.8814C16.81 48.4467 16.6694 47.9055 16.6694 47.2578C16.6694 46.7124 16.7695 46.2543 16.9698 45.8835C17.1701 45.5128 17.4428 45.2145 17.788 44.9886C18.1332 44.7628 18.5252 44.5923 18.9641 44.4773C19.4073 44.3622 19.8718 44.2812 20.3576 44.2344C20.9286 44.1747 21.3888 44.1193 21.7383 44.0682C22.0877 44.0128 22.3413 43.9318 22.4989 43.8253C22.6566 43.7187 22.7354 43.5611 22.7354 43.3523V43.3139C22.7354 42.9091 22.6076 42.5959 22.3519 42.3743C22.1005 42.1527 21.7425 42.0419 21.2781 42.0419C20.788 42.0419 20.3981 42.1506 20.1083 42.3679C19.8185 42.581 19.6268 42.8494 19.533 43.1733L17.0146 42.9688C17.1424 42.3722 17.3938 41.8565 17.7688 41.4219C18.1438 40.983 18.6275 40.6463 19.2198 40.4119C19.8164 40.1733 20.5067 40.054 21.2908 40.054C21.8363 40.054 22.3583 40.1179 22.8569 40.2457C23.3597 40.3736 23.805 40.5717 24.1928 40.8402C24.5849 41.1087 24.8938 41.4538 25.1197 41.8757C25.3455 42.2933 25.4585 42.794 25.4585 43.3778V50H22.8761V48.6385H22.7994C22.6417 48.9453 22.4308 49.2159 22.1665 49.4503C21.9023 49.6804 21.5849 49.8615 21.2141 49.9936C20.8434 50.1214 20.4151 50.1854 19.9293 50.1854ZM20.7092 48.3061C21.1097 48.3061 21.4634 48.2273 21.7702 48.0696C22.0771 47.9077 22.3178 47.6903 22.4925 47.4176C22.6673 47.1449 22.7546 46.8359 22.7546 46.4908V45.4489C22.6694 45.5043 22.5522 45.5554 22.4031 45.6023C22.2582 45.6449 22.0941 45.6854 21.9109 45.7237C21.7276 45.7578 21.5444 45.7898 21.3612 45.8196C21.1779 45.8452 21.0117 45.8686 20.8626 45.8899C20.543 45.9368 20.2638 46.0114 20.0252 46.1136C19.7866 46.2159 19.6012 46.3544 19.4691 46.5291C19.337 46.6996 19.271 46.9126 19.271 47.1683C19.271 47.5391 19.4052 47.8224 19.6737 48.0185C19.9464 48.2102 20.2915 48.3061 20.7092 48.3061ZM35.7401 42.9815L33.2472 43.1349C33.2045 42.9219 33.1129 42.7301 32.9723 42.5597C32.8317 42.3849 32.6463 42.2464 32.4162 42.1442C32.1903 42.0376 31.9197 41.9844 31.6044 41.9844C31.1825 41.9844 30.8267 42.0739 30.5369 42.2528C30.2472 42.4276 30.1023 42.6619 30.1023 42.956C30.1023 43.1903 30.196 43.3885 30.3835 43.5504C30.571 43.7124 30.8928 43.8423 31.3487 43.9403L33.1257 44.2983C34.0803 44.4943 34.7919 44.8097 35.2607 45.2443C35.7294 45.679 35.9638 46.25 35.9638 46.9574C35.9638 47.6009 35.7741 48.1655 35.3949 48.6513C35.0199 49.1371 34.5043 49.5163 33.848 49.7891C33.196 50.0575 32.4439 50.1918 31.5916 50.1918C30.2919 50.1918 29.2564 49.9212 28.4851 49.38C27.718 48.8345 27.2685 48.093 27.1364 47.1555L29.8146 47.0149C29.8956 47.4112 30.0916 47.7138 30.4027 47.9226C30.7138 48.1271 31.1122 48.2294 31.598 48.2294C32.0753 48.2294 32.4588 48.1378 32.7486 47.9545C33.0426 47.767 33.1918 47.5263 33.196 47.2322C33.1918 46.9851 33.0874 46.7827 32.8828 46.625C32.6783 46.4631 32.3629 46.3395 31.9368 46.2543L30.2365 45.9155C29.2777 45.7237 28.5639 45.3913 28.0952 44.9183C27.6307 44.4453 27.3984 43.8423 27.3984 43.1094C27.3984 42.4787 27.5689 41.9354 27.9098 41.4794C28.255 41.0234 28.7386 40.6719 29.3608 40.4247C29.9872 40.1776 30.7202 40.054 31.5597 40.054C32.7997 40.054 33.7756 40.3161 34.4872 40.8402C35.2031 41.3643 35.6207 42.0781 35.7401 42.9815ZM42.1529 50.1918C41.1429 50.1918 40.2736 49.9872 39.5449 49.5781C38.8205 49.1648 38.2623 48.581 37.8702 47.8267C37.4782 47.0682 37.2821 46.1712 37.2821 45.1357C37.2821 44.1257 37.4782 43.2393 37.8702 42.4766C38.2623 41.7138 38.8141 41.1193 39.5257 40.6932C40.2417 40.267 41.0811 40.054 42.0442 40.054C42.6919 40.054 43.2949 40.1584 43.8532 40.3672C44.4157 40.5717 44.9057 40.8807 45.3233 41.294C45.7452 41.7074 46.0733 42.2273 46.3077 42.8537C46.5421 43.4759 46.6593 44.2045 46.6593 45.0398V45.7876H38.3688V44.1001H44.0961C44.0961 43.7081 44.0108 43.3608 43.8404 43.0582C43.6699 42.7557 43.4334 42.5192 43.1309 42.3487C42.8326 42.174 42.4853 42.0866 42.089 42.0866C41.6756 42.0866 41.3091 42.1825 40.9895 42.3743C40.6742 42.5618 40.427 42.8153 40.248 43.1349C40.0691 43.4503 39.9775 43.8018 39.9732 44.1896V45.794C39.9732 46.2798 40.0627 46.6996 40.2417 47.0533C40.4249 47.407 40.6827 47.6797 41.0151 47.8714C41.3475 48.0632 41.7417 48.1591 42.1976 48.1591C42.5002 48.1591 42.7772 48.1165 43.0286 48.0312C43.28 47.946 43.4952 47.8182 43.6742 47.6477C43.8532 47.4773 43.9895 47.2685 44.0833 47.0213L46.6017 47.1875C46.4739 47.7926 46.2118 48.321 45.8155 48.7727C45.4235 49.2202 44.9164 49.5696 44.2942 49.821C43.6763 50.0682 42.9625 50.1918 42.1529 50.1918ZM55.4212 36.9091V50H52.6534V36.9091H55.4212ZM60.3702 44.3239V50H57.6472V40.1818H60.2424V41.9141H60.3574C60.5748 41.343 60.9391 40.8913 61.4505 40.5589C61.9618 40.2223 62.5819 40.054 63.3105 40.054C63.9924 40.054 64.5868 40.2031 65.0939 40.5014C65.601 40.7997 65.9952 41.2259 66.2765 41.7798C66.5577 42.3295 66.6983 42.9858 66.6983 43.7486V50H63.9753V44.2344C63.9796 43.6335 63.8262 43.1648 63.5151 42.8281C63.204 42.4872 62.7757 42.3168 62.2303 42.3168C61.8638 42.3168 61.54 42.3956 61.2587 42.5533C60.9817 42.7109 60.7644 42.9411 60.6067 43.2436C60.4533 43.5419 60.3745 43.902 60.3702 44.3239ZM74.1243 40.1818V42.2273H68.0646V40.1818H74.1243ZM69.4517 50V39.4723C69.4517 38.7607 69.5902 38.1705 69.8672 37.7017C70.1484 37.233 70.532 36.8814 71.0178 36.647C71.5036 36.4126 72.0554 36.2955 72.6733 36.2955C73.0909 36.2955 73.4723 36.3274 73.8175 36.3913C74.1669 36.4553 74.4268 36.5128 74.5973 36.5639L74.1115 38.6094C74.005 38.5753 73.8729 38.5433 73.7152 38.5135C73.5618 38.4837 73.4041 38.4688 73.2422 38.4688C72.8416 38.4688 72.5625 38.5625 72.4048 38.75C72.2472 38.9332 72.1683 39.1911 72.1683 39.5234V50H69.4517ZM79.8723 50.1918C78.8794 50.1918 78.0208 49.9808 77.2963 49.5589C76.5762 49.1328 76.0201 48.5405 75.628 47.782C75.236 47.0192 75.04 46.1349 75.04 45.1293C75.04 44.1151 75.236 43.2287 75.628 42.4702C76.0201 41.7074 76.5762 41.1151 77.2963 40.6932C78.0208 40.267 78.8794 40.054 79.8723 40.054C80.8652 40.054 81.7218 40.267 82.4419 40.6932C83.1664 41.1151 83.7246 41.7074 84.1167 42.4702C84.5087 43.2287 84.7047 44.1151 84.7047 45.1293C84.7047 46.1349 84.5087 47.0192 84.1167 47.782C83.7246 48.5405 83.1664 49.1328 82.4419 49.5589C81.7218 49.9808 80.8652 50.1918 79.8723 50.1918ZM79.8851 48.0824C80.3368 48.0824 80.714 47.9545 81.0165 47.6989C81.3191 47.4389 81.5471 47.0852 81.7005 46.6378C81.8581 46.1903 81.937 45.6811 81.937 45.1101C81.937 44.5391 81.8581 44.0298 81.7005 43.5824C81.5471 43.1349 81.3191 42.7812 81.0165 42.5213C80.714 42.2614 80.3368 42.1314 79.8851 42.1314C79.4292 42.1314 79.0456 42.2614 78.7346 42.5213C78.4277 42.7812 78.1955 43.1349 78.0378 43.5824C77.8844 44.0298 77.8077 44.5391 77.8077 45.1101C77.8077 45.6811 77.8844 46.1903 78.0378 46.6378C78.1955 47.0852 78.4277 47.4389 78.7346 47.6989C79.0456 47.9545 79.4292 48.0824 79.8851 48.0824ZM86.4753 50V40.1818H89.1152V41.8949H89.2175C89.3965 41.2855 89.6969 40.8253 90.1188 40.5142C90.5407 40.1989 91.0265 40.0412 91.5762 40.0412C91.7125 40.0412 91.8596 40.0497 92.0172 40.0668C92.1749 40.0838 92.3134 40.1072 92.4327 40.1371V42.5533C92.3049 42.5149 92.128 42.4808 91.9022 42.451C91.6763 42.4212 91.4696 42.4062 91.2821 42.4062C90.8816 42.4062 90.5236 42.4936 90.2083 42.6683C89.8972 42.8388 89.65 43.0774 89.4668 43.3842C89.2878 43.6911 89.1983 44.0447 89.1983 44.4453V50H86.4753ZM93.8406 50V40.1818H96.4357V41.9141H96.5508C96.7553 41.3388 97.0962 40.8849 97.5735 40.5526C98.0508 40.2202 98.6218 40.054 99.2866 40.054C99.9599 40.054 100.533 40.2223 101.006 40.5589C101.479 40.8913 101.794 41.343 101.952 41.9141H102.054C102.255 41.3516 102.617 40.902 103.141 40.5653C103.669 40.2244 104.294 40.054 105.014 40.054C105.93 40.054 106.674 40.3459 107.245 40.9297C107.82 41.5092 108.108 42.3317 108.108 43.397V50H105.391V43.9339C105.391 43.3885 105.246 42.9794 104.956 42.7067C104.667 42.4339 104.304 42.2976 103.87 42.2976C103.375 42.2976 102.99 42.4553 102.713 42.7706C102.436 43.0817 102.297 43.4929 102.297 44.0043V50H99.6573V43.8764C99.6573 43.3949 99.5188 43.0114 99.2418 42.7259C98.9691 42.4403 98.609 42.2976 98.1616 42.2976C97.859 42.2976 97.5863 42.3743 97.3434 42.5277C97.1048 42.6768 96.9151 42.8878 96.7745 43.1605C96.6339 43.429 96.5636 43.7443 96.5636 44.1065V50H93.8406ZM113.058 50.1854C112.432 50.1854 111.874 50.0767 111.384 49.8594C110.893 49.6378 110.506 49.3118 110.22 48.8814C109.939 48.4467 109.798 47.9055 109.798 47.2578C109.798 46.7124 109.898 46.2543 110.099 45.8835C110.299 45.5128 110.572 45.2145 110.917 44.9886C111.262 44.7628 111.654 44.5923 112.093 44.4773C112.536 44.3622 113.001 44.2812 113.487 44.2344C114.058 44.1747 114.518 44.1193 114.867 44.0682C115.217 44.0128 115.47 43.9318 115.628 43.8253C115.786 43.7187 115.864 43.5611 115.864 43.3523V43.3139C115.864 42.9091 115.737 42.5959 115.481 42.3743C115.229 42.1527 114.871 42.0419 114.407 42.0419C113.917 42.0419 113.527 42.1506 113.237 42.3679C112.947 42.581 112.756 42.8494 112.662 43.1733L110.143 42.9688C110.271 42.3722 110.523 41.8565 110.898 41.4219C111.273 40.983 111.756 40.6463 112.349 40.4119C112.945 40.1733 113.636 40.054 114.42 40.054C114.965 40.054 115.487 40.1179 115.986 40.2457C116.489 40.3736 116.934 40.5717 117.322 40.8402C117.714 41.1087 118.023 41.4538 118.249 41.8757C118.474 42.2933 118.587 42.794 118.587 43.3778V50H116.005V48.6385H115.928C115.771 48.9453 115.56 49.2159 115.295 49.4503C115.031 49.6804 114.714 49.8615 114.343 49.9936C113.972 50.1214 113.544 50.1854 113.058 50.1854ZM113.838 48.3061C114.239 48.3061 114.592 48.2273 114.899 48.0696C115.206 47.9077 115.447 47.6903 115.621 47.4176C115.796 47.1449 115.884 46.8359 115.884 46.4908V45.4489C115.798 45.5043 115.681 45.5554 115.532 45.6023C115.387 45.6449 115.223 45.6854 115.04 45.7237C114.857 45.7578 114.673 45.7898 114.49 45.8196C114.307 45.8452 114.141 45.8686 113.991 45.8899C113.672 45.9368 113.393 46.0114 113.154 46.1136C112.915 46.2159 112.73 46.3544 112.598 46.5291C112.466 46.6996 112.4 46.9126 112.4 47.1683C112.4 47.5391 112.534 47.8224 112.803 48.0185C113.075 48.2102 113.42 48.3061 113.838 48.3061ZM125.922 40.1818V42.2273H120.01V40.1818H125.922ZM121.352 37.8295H124.075V46.983C124.075 47.2344 124.113 47.4304 124.19 47.571C124.267 47.7074 124.373 47.8033 124.51 47.8587C124.65 47.9141 124.812 47.9418 124.995 47.9418C125.123 47.9418 125.251 47.9311 125.379 47.9098C125.507 47.8842 125.605 47.8651 125.673 47.8523L126.101 49.8786C125.965 49.9212 125.773 49.9702 125.526 50.0256C125.279 50.0852 124.978 50.1214 124.625 50.1342C123.968 50.1598 123.393 50.0724 122.899 49.8722C122.409 49.6719 122.027 49.3608 121.755 48.9389C121.482 48.517 121.348 47.9844 121.352 47.3409V37.8295ZM127.696 50V40.1818H130.419V50H127.696ZM129.064 38.9162C128.659 38.9162 128.312 38.782 128.022 38.5135C127.737 38.2408 127.594 37.9148 127.594 37.5355C127.594 37.1605 127.737 36.8388 128.022 36.5703C128.312 36.2976 128.659 36.1612 129.064 36.1612C129.469 36.1612 129.814 36.2976 130.099 36.5703C130.389 36.8388 130.534 37.1605 130.534 37.5355C130.534 37.9148 130.389 38.2408 130.099 38.5135C129.814 38.782 129.469 38.9162 129.064 38.9162ZM137.036 50.1918C136.044 50.1918 135.185 49.9808 134.46 49.5589C133.74 49.1328 133.184 48.5405 132.792 47.782C132.4 47.0192 132.204 46.1349 132.204 45.1293C132.204 44.1151 132.4 43.2287 132.792 42.4702C133.184 41.7074 133.74 41.1151 134.46 40.6932C135.185 40.267 136.044 40.054 137.036 40.054C138.029 40.054 138.886 40.267 139.606 40.6932C140.33 41.1151 140.889 41.7074 141.281 42.4702C141.673 43.2287 141.869 44.1151 141.869 45.1293C141.869 46.1349 141.673 47.0192 141.281 47.782C140.889 48.5405 140.33 49.1328 139.606 49.5589C138.886 49.9808 138.029 50.1918 137.036 50.1918ZM137.049 48.0824C137.501 48.0824 137.878 47.9545 138.181 47.6989C138.483 47.4389 138.711 47.0852 138.865 46.6378C139.022 46.1903 139.101 45.6811 139.101 45.1101C139.101 44.5391 139.022 44.0298 138.865 43.5824C138.711 43.1349 138.483 42.7812 138.181 42.5213C137.878 42.2614 137.501 42.1314 137.049 42.1314C136.593 42.1314 136.21 42.2614 135.899 42.5213C135.592 42.7812 135.36 43.1349 135.202 43.5824C135.048 44.0298 134.972 44.5391 134.972 45.1101C134.972 45.6811 135.048 46.1903 135.202 46.6378C135.36 47.0852 135.592 47.4389 135.899 47.6989C136.21 47.9545 136.593 48.0824 137.049 48.0824ZM146.362 44.3239V50H143.639V40.1818H146.235V41.9141H146.35C146.567 41.343 146.931 40.8913 147.443 40.5589C147.954 40.2223 148.574 40.054 149.303 40.054C149.985 40.054 150.579 40.2031 151.086 40.5014C151.593 40.7997 151.987 41.2259 152.269 41.7798C152.55 42.3295 152.691 42.9858 152.691 43.7486V50H149.968V44.2344C149.972 43.6335 149.818 43.1648 149.507 42.8281C149.196 42.4872 148.768 42.3168 148.222 42.3168C147.856 42.3168 147.532 42.3956 147.251 42.5533C146.974 42.7109 146.757 42.9411 146.599 43.2436C146.445 43.5419 146.367 43.902 146.362 44.3239ZM163.006 42.9815L160.513 43.1349C160.47 42.9219 160.379 42.7301 160.238 42.5597C160.097 42.3849 159.912 42.2464 159.682 42.1442C159.456 42.0376 159.185 41.9844 158.87 41.9844C158.448 41.9844 158.092 42.0739 157.803 42.2528C157.513 42.4276 157.368 42.6619 157.368 42.956C157.368 43.1903 157.462 43.3885 157.649 43.5504C157.837 43.7124 158.158 43.8423 158.614 43.9403L160.391 44.2983C161.346 44.4943 162.058 44.8097 162.526 45.2443C162.995 45.679 163.229 46.25 163.229 46.9574C163.229 47.6009 163.04 48.1655 162.661 48.6513C162.286 49.1371 161.77 49.5163 161.114 49.7891C160.462 50.0575 159.71 50.1918 158.857 50.1918C157.558 50.1918 156.522 49.9212 155.751 49.38C154.984 48.8345 154.534 48.093 154.402 47.1555L157.08 47.0149C157.161 47.4112 157.357 47.7138 157.668 47.9226C157.979 48.1271 158.378 48.2294 158.864 48.2294C159.341 48.2294 159.724 48.1378 160.014 47.9545C160.308 47.767 160.457 47.5263 160.462 47.2322C160.457 46.9851 160.353 46.7827 160.148 46.625C159.944 46.4631 159.629 46.3395 159.202 46.2543L157.502 45.9155C156.543 45.7237 155.83 45.3913 155.361 44.9183C154.896 44.4453 154.664 43.8423 154.664 43.1094C154.664 42.4787 154.835 41.9354 155.175 41.4794C155.521 41.0234 156.004 40.6719 156.626 40.4247C157.253 40.1776 157.986 40.054 158.825 40.054C160.065 40.054 161.041 40.3161 161.753 40.8402C162.469 41.3643 162.886 42.0781 163.006 42.9815Z" fill="#EDF6EE"/>
<path d="M168 16H336V54C336 62.8366 328.837 70 320 70H184C175.163 70 168 62.8366 168 54V16Z" fill="#EDF6EE"/>
<path d="M168.5 16.5H335.5V54C335.5 62.5604 328.56 69.5 320 69.5H184C175.44 69.5 168.5 62.5604 168.5 54V16.5Z" stroke="#151101" stroke-opacity="0.48"/>
<path d="M202.872 50V36.9091H207.296C208.323 36.9091 209.162 37.0945 209.814 37.4652C210.47 37.8317 210.956 38.3281 211.271 38.9545C211.587 39.581 211.744 40.2798 211.744 41.0511C211.744 41.8224 211.587 42.5234 211.271 43.1541C210.96 43.7848 210.479 44.2876 209.827 44.6626C209.175 45.0334 208.34 45.2188 207.321 45.2188H204.151V43.8125H207.27C207.973 43.8125 208.538 43.6911 208.964 43.4482C209.39 43.2053 209.699 42.8771 209.891 42.4638C210.087 42.0462 210.185 41.5753 210.185 41.0511C210.185 40.527 210.087 40.0582 209.891 39.6449C209.699 39.2315 209.388 38.9077 208.958 38.6733C208.527 38.4347 207.956 38.3153 207.244 38.3153H204.458V50H202.872ZM216.983 50.2301C216.361 50.2301 215.796 50.1129 215.289 49.8786C214.782 49.6399 214.379 49.2969 214.081 48.8494C213.782 48.3977 213.633 47.8523 213.633 47.2131C213.633 46.6506 213.744 46.1946 213.966 45.8452C214.187 45.4915 214.483 45.2145 214.854 45.0142C215.225 44.8139 215.634 44.6648 216.081 44.5668C216.533 44.4645 216.987 44.3835 217.443 44.3239C218.04 44.2472 218.523 44.1896 218.894 44.1513C219.269 44.1087 219.542 44.0384 219.712 43.9403C219.887 43.8423 219.974 43.6719 219.974 43.429V43.3778C219.974 42.7472 219.802 42.2571 219.456 41.9077C219.116 41.5582 218.598 41.3835 217.903 41.3835C217.183 41.3835 216.618 41.5412 216.209 41.8565C215.8 42.1719 215.513 42.5085 215.346 42.8665L213.915 42.3551C214.17 41.7585 214.511 41.294 214.937 40.9616C215.368 40.625 215.836 40.3906 216.344 40.2585C216.855 40.1222 217.358 40.054 217.852 40.054C218.167 40.054 218.53 40.0923 218.939 40.169C219.352 40.2415 219.751 40.3928 220.134 40.6229C220.522 40.853 220.844 41.2003 221.099 41.6648C221.355 42.1293 221.483 42.7514 221.483 43.5312V50H219.974V48.6705H219.898C219.795 48.8835 219.625 49.1115 219.386 49.3544C219.148 49.5973 218.83 49.804 218.434 49.9744C218.037 50.1449 217.554 50.2301 216.983 50.2301ZM217.213 48.875C217.809 48.875 218.312 48.7578 218.721 48.5234C219.135 48.2891 219.446 47.9865 219.655 47.6158C219.868 47.245 219.974 46.8551 219.974 46.446V45.0653C219.91 45.142 219.77 45.2124 219.552 45.2763C219.339 45.3359 219.092 45.3892 218.811 45.4361C218.534 45.4787 218.263 45.517 217.999 45.5511C217.739 45.581 217.528 45.6065 217.366 45.6278C216.974 45.679 216.608 45.7621 216.267 45.8771C215.93 45.9879 215.657 46.1562 215.449 46.3821C215.244 46.6037 215.142 46.9062 215.142 47.2898C215.142 47.8139 215.336 48.2102 215.724 48.4787C216.116 48.7429 216.612 48.875 217.213 48.875ZM224.236 50V40.1818H225.694V41.6648H225.796C225.975 41.179 226.299 40.7848 226.767 40.4822C227.236 40.1797 227.765 40.0284 228.353 40.0284C228.463 40.0284 228.602 40.0305 228.768 40.0348C228.934 40.0391 229.06 40.0455 229.145 40.054V41.5881C229.094 41.5753 228.977 41.5561 228.794 41.5305C228.615 41.5007 228.425 41.4858 228.225 41.4858C227.748 41.4858 227.321 41.5859 226.946 41.7862C226.576 41.9822 226.282 42.255 226.064 42.6044C225.851 42.9496 225.745 43.3437 225.745 43.7869V50H224.236ZM235.819 40.1818V41.4602H230.73V40.1818H235.819ZM232.213 37.8295H233.722V47.1875C233.722 47.6136 233.784 47.9332 233.907 48.1463C234.035 48.3551 234.197 48.4957 234.393 48.5682C234.593 48.6364 234.804 48.6705 235.026 48.6705C235.192 48.6705 235.328 48.6619 235.435 48.6449C235.542 48.6236 235.627 48.6065 235.691 48.5938L235.998 49.9489C235.895 49.9872 235.752 50.0256 235.569 50.0639C235.386 50.1065 235.154 50.1278 234.873 50.1278C234.446 50.1278 234.029 50.0362 233.62 49.853C233.215 49.6697 232.878 49.3906 232.61 49.0156C232.346 48.6406 232.213 48.1676 232.213 47.5966V37.8295ZM238.088 50V40.1818H239.596V50H238.088ZM238.855 38.5455C238.561 38.5455 238.307 38.4453 238.094 38.245C237.885 38.0447 237.781 37.804 237.781 37.5227C237.781 37.2415 237.885 37.0007 238.094 36.8004C238.307 36.6001 238.561 36.5 238.855 36.5C239.149 36.5 239.4 36.6001 239.609 36.8004C239.822 37.0007 239.929 37.2415 239.929 37.5227C239.929 37.804 239.822 38.0447 239.609 38.245C239.4 38.4453 239.149 38.5455 238.855 38.5455ZM246.348 50.2045C245.427 50.2045 244.635 49.9872 243.97 49.5526C243.305 49.1179 242.794 48.5192 242.436 47.7564C242.078 46.9936 241.899 46.1222 241.899 45.142C241.899 44.1449 242.082 43.2649 242.449 42.5021C242.819 41.7351 243.335 41.1364 243.996 40.706C244.66 40.2713 245.436 40.054 246.322 40.054C247.013 40.054 247.635 40.1818 248.189 40.4375C248.743 40.6932 249.197 41.0511 249.55 41.5114C249.904 41.9716 250.123 42.5085 250.209 43.1222H248.7C248.585 42.6747 248.329 42.2784 247.933 41.9332C247.541 41.5838 247.013 41.4091 246.348 41.4091C245.76 41.4091 245.244 41.5625 244.801 41.8693C244.362 42.1719 244.019 42.6001 243.772 43.1541C243.529 43.7038 243.407 44.3494 243.407 45.0909C243.407 45.8494 243.527 46.5099 243.765 47.0724C244.008 47.6349 244.349 48.0717 244.788 48.3828C245.231 48.6939 245.751 48.8494 246.348 48.8494C246.74 48.8494 247.096 48.7812 247.415 48.6449C247.735 48.5085 248.006 48.3125 248.227 48.0568C248.449 47.8011 248.606 47.4943 248.7 47.1364H250.209C250.123 47.7159 249.912 48.2379 249.576 48.7024C249.243 49.1626 248.802 49.5291 248.253 49.8018C247.707 50.0703 247.072 50.2045 246.348 50.2045ZM252.414 50V40.1818H253.922V50H252.414ZM253.181 38.5455C252.887 38.5455 252.633 38.4453 252.42 38.245C252.211 38.0447 252.107 37.804 252.107 37.5227C252.107 37.2415 252.211 37.0007 252.42 36.8004C252.633 36.6001 252.887 36.5 253.181 36.5C253.475 36.5 253.726 36.6001 253.935 36.8004C254.148 37.0007 254.255 37.2415 254.255 37.5227C254.255 37.804 254.148 38.0447 253.935 38.245C253.726 38.4453 253.475 38.5455 253.181 38.5455ZM256.685 53.6818V40.1818H258.143V41.7415H258.322C258.433 41.571 258.586 41.3537 258.782 41.0895C258.982 40.821 259.268 40.5824 259.638 40.3736C260.013 40.1605 260.521 40.054 261.16 40.054C261.987 40.054 262.715 40.2607 263.346 40.674C263.977 41.0874 264.469 41.6733 264.822 42.4318C265.176 43.1903 265.353 44.0852 265.353 45.1165C265.353 46.1562 265.176 47.0575 264.822 47.8203C264.469 48.5788 263.979 49.1669 263.352 49.5845C262.726 49.9979 262.004 50.2045 261.185 50.2045C260.555 50.2045 260.05 50.1001 259.67 49.8913C259.291 49.6783 258.999 49.4375 258.795 49.169C258.59 48.8963 258.433 48.6705 258.322 48.4915H258.194V53.6818H256.685ZM258.168 45.0909C258.168 45.8324 258.277 46.4865 258.494 47.0533C258.712 47.6158 259.029 48.0568 259.447 48.3764C259.864 48.6918 260.376 48.8494 260.981 48.8494C261.612 48.8494 262.138 48.6832 262.56 48.3509C262.986 48.0142 263.305 47.5625 263.518 46.9957C263.736 46.4247 263.844 45.7898 263.844 45.0909C263.844 44.4006 263.738 43.7784 263.525 43.2244C263.316 42.6662 262.999 42.2251 262.572 41.9013C262.151 41.5732 261.62 41.4091 260.981 41.4091C260.367 41.4091 259.852 41.5646 259.434 41.8757C259.016 42.1825 258.701 42.6129 258.488 43.1669C258.275 43.7166 258.168 44.358 258.168 45.0909ZM270.543 50.2301C269.921 50.2301 269.357 50.1129 268.849 49.8786C268.342 49.6399 267.94 49.2969 267.641 48.8494C267.343 48.3977 267.194 47.8523 267.194 47.2131C267.194 46.6506 267.305 46.1946 267.526 45.8452C267.748 45.4915 268.044 45.2145 268.415 45.0142C268.786 44.8139 269.195 44.6648 269.642 44.5668C270.094 44.4645 270.548 44.3835 271.004 44.3239C271.6 44.2472 272.084 44.1896 272.455 44.1513C272.83 44.1087 273.102 44.0384 273.273 43.9403C273.447 43.8423 273.535 43.6719 273.535 43.429V43.3778C273.535 42.7472 273.362 42.2571 273.017 41.9077C272.676 41.5582 272.158 41.3835 271.464 41.3835C270.744 41.3835 270.179 41.5412 269.77 41.8565C269.361 42.1719 269.073 42.5085 268.907 42.8665L267.475 42.3551C267.731 41.7585 268.072 41.294 268.498 40.9616C268.928 40.625 269.397 40.3906 269.904 40.2585C270.415 40.1222 270.918 40.054 271.413 40.054C271.728 40.054 272.09 40.0923 272.499 40.169C272.913 40.2415 273.311 40.3928 273.695 40.6229C274.082 40.853 274.404 41.2003 274.66 41.6648C274.915 42.1293 275.043 42.7514 275.043 43.5312V50H273.535V48.6705H273.458C273.356 48.8835 273.185 49.1115 272.947 49.3544C272.708 49.5973 272.391 49.804 271.994 49.9744C271.598 50.1449 271.114 50.2301 270.543 50.2301ZM270.773 48.875C271.37 48.875 271.873 48.7578 272.282 48.5234C272.695 48.2891 273.006 47.9865 273.215 47.6158C273.428 47.245 273.535 46.8551 273.535 46.446V45.0653C273.471 45.142 273.33 45.2124 273.113 45.2763C272.9 45.3359 272.653 45.3892 272.371 45.4361C272.094 45.4787 271.824 45.517 271.56 45.5511C271.3 45.581 271.089 45.6065 270.927 45.6278C270.535 45.679 270.168 45.7621 269.827 45.8771C269.491 45.9879 269.218 46.1562 269.009 46.3821C268.805 46.6037 268.702 46.9062 268.702 47.2898C268.702 47.8139 268.896 48.2102 269.284 48.4787C269.676 48.7429 270.173 48.875 270.773 48.875ZM279.305 44.0938V50H277.797V40.1818H279.254V41.7159H279.382C279.612 41.2173 279.961 40.8168 280.43 40.5142C280.899 40.2074 281.504 40.054 282.246 40.054C282.91 40.054 283.492 40.1903 283.991 40.4631C284.489 40.7315 284.877 41.1406 285.154 41.6903C285.431 42.2358 285.569 42.9261 285.569 43.7614V50H284.061V43.8636C284.061 43.0923 283.861 42.4915 283.46 42.0611C283.059 41.6264 282.51 41.4091 281.811 41.4091C281.329 41.4091 280.899 41.5135 280.52 41.7223C280.145 41.9311 279.849 42.2358 279.631 42.6364C279.414 43.0369 279.305 43.5227 279.305 44.0938ZM292.596 40.1818V41.4602H287.508V40.1818H292.596ZM288.991 37.8295H290.499V47.1875C290.499 47.6136 290.561 47.9332 290.685 48.1463C290.813 48.3551 290.974 48.4957 291.17 48.5682C291.371 48.6364 291.582 48.6705 291.803 48.6705C291.969 48.6705 292.106 48.6619 292.212 48.6449C292.319 48.6236 292.404 48.6065 292.468 48.5938L292.775 49.9489C292.673 49.9872 292.53 50.0256 292.347 50.0639C292.163 50.1065 291.931 50.1278 291.65 50.1278C291.224 50.1278 290.806 50.0362 290.397 49.853C289.992 49.6697 289.656 49.3906 289.387 49.0156C289.123 48.6406 288.991 48.1676 288.991 47.5966V37.8295ZM301.644 42.3807L300.289 42.7642C300.203 42.5384 300.078 42.3189 299.912 42.1058C299.75 41.8885 299.528 41.7095 299.247 41.5689C298.966 41.4283 298.605 41.358 298.167 41.358C297.566 41.358 297.065 41.4964 296.664 41.7734C296.268 42.0462 296.07 42.3935 296.07 42.8153C296.07 43.1903 296.206 43.4865 296.479 43.7038C296.752 43.9212 297.178 44.1023 297.757 44.2472L299.215 44.6051C300.093 44.8182 300.747 45.1442 301.177 45.5831C301.608 46.0178 301.823 46.5781 301.823 47.2642C301.823 47.8267 301.661 48.3295 301.337 48.7727C301.017 49.2159 300.57 49.5653 299.995 49.821C299.419 50.0767 298.75 50.2045 297.988 50.2045C296.986 50.2045 296.157 49.9872 295.501 49.5526C294.845 49.1179 294.429 48.483 294.255 47.6477L295.686 47.2898C295.823 47.8182 296.081 48.2145 296.46 48.4787C296.843 48.7429 297.344 48.875 297.962 48.875C298.665 48.875 299.223 48.7259 299.637 48.4276C300.054 48.125 300.263 47.7628 300.263 47.3409C300.263 47 300.144 46.7145 299.905 46.4844C299.667 46.25 299.3 46.0753 298.806 45.9602L297.169 45.5767C296.27 45.3636 295.61 45.0334 295.188 44.5859C294.77 44.1342 294.561 43.5696 294.561 42.892C294.561 42.3381 294.717 41.848 295.028 41.4219C295.343 40.9957 295.772 40.6612 296.313 40.4183C296.858 40.1754 297.476 40.054 298.167 40.054C299.138 40.054 299.901 40.267 300.455 40.6932C301.013 41.1193 301.409 41.6818 301.644 42.3807Z" fill="#151101" fill-opacity="0.48"/>
<path d="M336 16H504V54C504 62.8366 496.837 70 488 70H352C343.163 70 336 62.8366 336 54V16Z" fill="#EDF6EE"/>
<path d="M336.5 16.5H503.5V54C503.5 62.5604 496.56 69.5 488 69.5H352C343.44 69.5 336.5 62.5604 336.5 54V16.5Z" stroke="#151101" stroke-opacity="0.48"/>
<path d="M392.534 50H388.494V36.9091H392.713C393.983 36.9091 395.07 37.1712 395.973 37.6953C396.877 38.2152 397.569 38.9631 398.051 39.9389C398.532 40.9105 398.773 42.0739 398.773 43.429C398.773 44.7926 398.53 45.9666 398.044 46.951C397.558 47.9311 396.851 48.6854 395.922 49.2138C394.993 49.7379 393.864 50 392.534 50ZM390.08 48.5938H392.432C393.514 48.5938 394.411 48.3849 395.123 47.9673C395.835 47.5497 396.365 46.9553 396.715 46.1839C397.064 45.4126 397.239 44.4943 397.239 43.429C397.239 42.3722 397.066 41.4624 396.721 40.6996C396.376 39.9325 395.86 39.3445 395.174 38.9354C394.488 38.522 393.634 38.3153 392.611 38.3153H390.08V48.5938ZM404.117 50.2301C403.494 50.2301 402.93 50.1129 402.423 49.8786C401.916 49.6399 401.513 49.2969 401.215 48.8494C400.916 48.3977 400.767 47.8523 400.767 47.2131C400.767 46.6506 400.878 46.1946 401.1 45.8452C401.321 45.4915 401.617 45.2145 401.988 45.0142C402.359 44.8139 402.768 44.6648 403.215 44.5668C403.667 44.4645 404.121 44.3835 404.577 44.3239C405.173 44.2472 405.657 44.1896 406.028 44.1513C406.403 44.1087 406.676 44.0384 406.846 43.9403C407.021 43.8423 407.108 43.6719 407.108 43.429V43.3778C407.108 42.7472 406.935 42.2571 406.59 41.9077C406.249 41.5582 405.732 41.3835 405.037 41.3835C404.317 41.3835 403.752 41.5412 403.343 41.8565C402.934 42.1719 402.646 42.5085 402.48 42.8665L401.048 42.3551C401.304 41.7585 401.645 41.294 402.071 40.9616C402.502 40.625 402.97 40.3906 403.477 40.2585C403.989 40.1222 404.492 40.054 404.986 40.054C405.301 40.054 405.663 40.0923 406.073 40.169C406.486 40.2415 406.884 40.3928 407.268 40.6229C407.656 40.853 407.977 41.2003 408.233 41.6648C408.489 42.1293 408.617 42.7514 408.617 43.5312V50H407.108V48.6705H407.031C406.929 48.8835 406.759 49.1115 406.52 49.3544C406.281 49.5973 405.964 49.804 405.568 49.9744C405.171 50.1449 404.688 50.2301 404.117 50.2301ZM404.347 48.875C404.943 48.875 405.446 48.7578 405.855 48.5234C406.269 48.2891 406.58 47.9865 406.788 47.6158C407.002 47.245 407.108 46.8551 407.108 46.446V45.0653C407.044 45.142 406.903 45.2124 406.686 45.2763C406.473 45.3359 406.226 45.3892 405.945 45.4361C405.668 45.4787 405.397 45.517 405.133 45.5511C404.873 45.581 404.662 45.6065 404.5 45.6278C404.108 45.679 403.742 45.7621 403.401 45.8771C403.064 45.9879 402.791 46.1562 402.582 46.3821C402.378 46.6037 402.276 46.9062 402.276 47.2898C402.276 47.8139 402.47 48.2102 402.857 48.4787C403.249 48.7429 403.746 48.875 404.347 48.875ZM415.64 40.1818V41.4602H410.552V40.1818H415.64ZM412.035 37.8295H413.543V47.1875C413.543 47.6136 413.605 47.9332 413.729 48.1463C413.856 48.3551 414.018 48.4957 414.214 48.5682C414.415 48.6364 414.626 48.6705 414.847 48.6705C415.013 48.6705 415.15 48.6619 415.256 48.6449C415.363 48.6236 415.448 48.6065 415.512 48.5938L415.819 49.9489C415.717 49.9872 415.574 50.0256 415.391 50.0639C415.207 50.1065 414.975 50.1278 414.694 50.1278C414.268 50.1278 413.85 50.0362 413.441 49.853C413.036 49.6697 412.699 49.3906 412.431 49.0156C412.167 48.6406 412.035 48.1676 412.035 47.5966V37.8295ZM420.798 50.2301C420.176 50.2301 419.611 50.1129 419.104 49.8786C418.597 49.6399 418.195 49.2969 417.896 48.8494C417.598 48.3977 417.449 47.8523 417.449 47.2131C417.449 46.6506 417.56 46.1946 417.781 45.8452C418.003 45.4915 418.299 45.2145 418.67 45.0142C419.04 44.8139 419.449 44.6648 419.897 44.5668C420.349 44.4645 420.802 44.3835 421.258 44.3239C421.855 44.2472 422.339 44.1896 422.709 44.1513C423.084 44.1087 423.357 44.0384 423.528 43.9403C423.702 43.8423 423.79 43.6719 423.79 43.429V43.3778C423.79 42.7472 423.617 42.2571 423.272 41.9077C422.931 41.5582 422.413 41.3835 421.719 41.3835C420.998 41.3835 420.434 41.5412 420.025 41.8565C419.616 42.1719 419.328 42.5085 419.162 42.8665L417.73 42.3551C417.986 41.7585 418.327 41.294 418.753 40.9616C419.183 40.625 419.652 40.3906 420.159 40.2585C420.67 40.1222 421.173 40.054 421.668 40.054C421.983 40.054 422.345 40.0923 422.754 40.169C423.168 40.2415 423.566 40.3928 423.949 40.6229C424.337 40.853 424.659 41.2003 424.915 41.6648C425.17 42.1293 425.298 42.7514 425.298 43.5312V50H423.79V48.6705H423.713C423.611 48.8835 423.44 49.1115 423.202 49.3544C422.963 49.5973 422.646 49.804 422.249 49.9744C421.853 50.1449 421.369 50.2301 420.798 50.2301ZM421.028 48.875C421.625 48.875 422.128 48.7578 422.537 48.5234C422.95 48.2891 423.261 47.9865 423.47 47.6158C423.683 47.245 423.79 46.8551 423.79 46.446V45.0653C423.726 45.142 423.585 45.2124 423.368 45.2763C423.155 45.3359 422.908 45.3892 422.626 45.4361C422.349 45.4787 422.079 45.517 421.815 45.5511C421.555 45.581 421.344 45.6065 421.182 45.6278C420.79 45.679 420.423 45.7621 420.082 45.8771C419.746 45.9879 419.473 46.1562 419.264 46.3821C419.06 46.6037 418.957 46.9062 418.957 47.2898C418.957 47.8139 419.151 48.2102 419.539 48.4787C419.931 48.7429 420.427 48.875 421.028 48.875ZM435.006 42.3807L433.651 42.7642C433.566 42.5384 433.44 42.3189 433.274 42.1058C433.112 41.8885 432.89 41.7095 432.609 41.5689C432.328 41.4283 431.968 41.358 431.529 41.358C430.928 41.358 430.427 41.4964 430.027 41.7734C429.63 42.0462 429.432 42.3935 429.432 42.8153C429.432 43.1903 429.569 43.4865 429.841 43.7038C430.114 43.9212 430.54 44.1023 431.12 44.2472L432.577 44.6051C433.455 44.8182 434.109 45.1442 434.54 45.5831C434.97 46.0178 435.185 46.5781 435.185 47.2642C435.185 47.8267 435.023 48.3295 434.699 48.7727C434.38 49.2159 433.932 49.5653 433.357 49.821C432.782 50.0767 432.113 50.2045 431.35 50.2045C430.348 50.2045 429.52 49.9872 428.863 49.5526C428.207 49.1179 427.792 48.483 427.617 47.6477L429.049 47.2898C429.185 47.8182 429.443 48.2145 429.822 48.4787C430.206 48.7429 430.706 48.875 431.324 48.875C432.027 48.875 432.586 48.7259 432.999 48.4276C433.417 48.125 433.625 47.7628 433.625 47.3409C433.625 47 433.506 46.7145 433.267 46.4844C433.029 46.25 432.662 46.0753 432.168 45.9602L430.532 45.5767C429.633 45.3636 428.972 45.0334 428.55 44.5859C428.133 44.1342 427.924 43.5696 427.924 42.892C427.924 42.3381 428.079 41.848 428.39 41.4219C428.706 40.9957 429.134 40.6612 429.675 40.4183C430.221 40.1754 430.839 40.054 431.529 40.054C432.5 40.054 433.263 40.267 433.817 40.6932C434.375 41.1193 434.772 41.6818 435.006 42.3807ZM441.572 50.2045C440.626 50.2045 439.81 49.9957 439.124 49.5781C438.442 49.1562 437.916 48.5682 437.545 47.8139C437.179 47.0554 436.996 46.1733 436.996 45.1676C436.996 44.1619 437.179 43.2756 437.545 42.5085C437.916 41.7372 438.432 41.1364 439.092 40.706C439.757 40.2713 440.533 40.054 441.419 40.054C441.93 40.054 442.435 40.1392 442.934 40.3097C443.432 40.4801 443.886 40.7571 444.295 41.1406C444.704 41.5199 445.03 42.0227 445.273 42.6491C445.516 43.2756 445.638 44.0469 445.638 44.9631V45.6023H438.07V44.2983H444.104C444.104 43.7443 443.993 43.25 443.771 42.8153C443.554 42.3807 443.243 42.0376 442.838 41.7862C442.437 41.5348 441.964 41.4091 441.419 41.4091C440.818 41.4091 440.298 41.5582 439.859 41.8565C439.425 42.1506 439.09 42.5341 438.856 43.0071C438.621 43.4801 438.504 43.9872 438.504 44.5284V45.3977C438.504 46.1392 438.632 46.7678 438.888 47.2834C439.148 47.7947 439.508 48.1847 439.968 48.4531C440.428 48.7173 440.963 48.8494 441.572 48.8494C441.969 48.8494 442.327 48.794 442.646 48.6832C442.97 48.5682 443.249 48.3977 443.484 48.1719C443.718 47.9418 443.899 47.6562 444.027 47.3153L445.484 47.7244C445.331 48.2188 445.073 48.6534 444.711 49.0284C444.349 49.3991 443.901 49.6889 443.369 49.8977C442.836 50.1023 442.237 50.2045 441.572 50.2045ZM452.202 40.1818V41.4602H447.114V40.1818H452.202ZM448.597 37.8295H450.106V47.1875C450.106 47.6136 450.168 47.9332 450.291 48.1463C450.419 48.3551 450.581 48.4957 450.777 48.5682C450.977 48.6364 451.188 48.6705 451.41 48.6705C451.576 48.6705 451.712 48.6619 451.819 48.6449C451.925 48.6236 452.011 48.6065 452.074 48.5938L452.381 49.9489C452.279 49.9872 452.136 50.0256 451.953 50.0639C451.77 50.1065 451.538 50.1278 451.256 50.1278C450.83 50.1278 450.413 50.0362 450.003 49.853C449.599 49.6697 449.262 49.3906 448.994 49.0156C448.729 48.6406 448.597 48.1676 448.597 47.5966V37.8295Z" fill="#151101" fill-opacity="0.48"/>
<path d="M504 16H672V54C672 62.8366 664.837 70 656 70H520C511.163 70 504 62.8366 504 54V16Z" fill="#EDF6EE"/>
<path d="M504.5 16.5H671.5V54C671.5 62.5604 664.56 69.5 656 69.5H520C511.44 69.5 504.5 62.5604 504.5 54V16.5Z" stroke="#151101" stroke-opacity="0.48"/>
<path d="M547.478 50H545.816L550.623 36.9091H552.259L557.066 50H555.404L551.492 38.9801H551.39L547.478 50ZM548.091 44.8864H554.79V46.2926H548.091V44.8864ZM562.608 50.2045C561.789 50.2045 561.067 49.9979 560.441 49.5845C559.814 49.1669 559.324 48.5788 558.971 47.8203C558.617 47.0575 558.44 46.1562 558.44 45.1165C558.44 44.0852 558.617 43.1903 558.971 42.4318C559.324 41.6733 559.816 41.0874 560.447 40.674C561.078 40.2607 561.806 40.054 562.633 40.054C563.272 40.054 563.777 40.1605 564.148 40.3736C564.523 40.5824 564.809 40.821 565.005 41.0895C565.205 41.3537 565.36 41.571 565.471 41.7415H565.599V36.9091H567.108V50H565.65V48.4915H565.471C565.36 48.6705 565.203 48.8963 564.998 49.169C564.794 49.4375 564.502 49.6783 564.123 49.8913C563.743 50.1001 563.238 50.2045 562.608 50.2045ZM562.812 48.8494C563.417 48.8494 563.929 48.6918 564.346 48.3764C564.764 48.0568 565.081 47.6158 565.299 47.0533C565.516 46.4865 565.625 45.8324 565.625 45.0909C565.625 44.358 565.518 43.7166 565.305 43.1669C565.092 42.6129 564.777 42.1825 564.359 41.8757C563.941 41.5646 563.426 41.4091 562.812 41.4091C562.173 41.4091 561.64 41.5732 561.214 41.9013C560.792 42.2251 560.475 42.6662 560.262 43.2244C560.053 43.7784 559.949 44.4006 559.949 45.0909C559.949 45.7898 560.055 46.4247 560.268 46.9957C560.485 47.5625 560.805 48.0142 561.227 48.3509C561.653 48.6832 562.181 48.8494 562.812 48.8494ZM573.787 50.2045C572.969 50.2045 572.247 49.9979 571.62 49.5845C570.994 49.1669 570.504 48.5788 570.15 47.8203C569.797 47.0575 569.62 46.1562 569.62 45.1165C569.62 44.0852 569.797 43.1903 570.15 42.4318C570.504 41.6733 570.996 41.0874 571.627 40.674C572.257 40.2607 572.986 40.054 573.813 40.054C574.452 40.054 574.957 40.1605 575.328 40.3736C575.703 40.5824 575.988 40.821 576.184 41.0895C576.385 41.3537 576.54 41.571 576.651 41.7415H576.779V36.9091H578.287V50H576.83V48.4915H576.651C576.54 48.6705 576.382 48.8963 576.178 49.169C575.973 49.4375 575.681 49.6783 575.302 49.8913C574.923 50.1001 574.418 50.2045 573.787 50.2045ZM573.992 48.8494C574.597 48.8494 575.108 48.6918 575.526 48.3764C575.944 48.0568 576.261 47.6158 576.478 47.0533C576.696 46.4865 576.804 45.8324 576.804 45.0909C576.804 44.358 576.698 43.7166 576.485 43.1669C576.272 42.6129 575.956 42.1825 575.539 41.8757C575.121 41.5646 574.605 41.4091 573.992 41.4091C573.353 41.4091 572.82 41.5732 572.394 41.9013C571.972 42.2251 571.654 42.6662 571.441 43.2244C571.233 43.7784 571.128 44.4006 571.128 45.0909C571.128 45.7898 571.235 46.4247 571.448 46.9957C571.665 47.5625 571.985 48.0142 572.407 48.3509C572.833 48.6832 573.361 48.8494 573.992 48.8494ZM581.26 50V40.1818H582.768V50H581.26ZM582.027 38.5455C581.733 38.5455 581.479 38.4453 581.266 38.245C581.057 38.0447 580.953 37.804 580.953 37.5227C580.953 37.2415 581.057 37.0007 581.266 36.8004C581.479 36.6001 581.733 36.5 582.027 36.5C582.321 36.5 582.572 36.6001 582.781 36.8004C582.994 37.0007 583.1 37.2415 583.1 37.5227C583.1 37.804 582.994 38.0447 582.781 38.245C582.572 38.4453 582.321 38.5455 582.027 38.5455ZM589.801 40.1818V41.4602H584.713V40.1818H589.801ZM586.196 37.8295H587.704V47.1875C587.704 47.6136 587.766 47.9332 587.89 48.1463C588.018 48.3551 588.18 48.4957 588.376 48.5682C588.576 48.6364 588.787 48.6705 589.008 48.6705C589.175 48.6705 589.311 48.6619 589.417 48.6449C589.524 48.6236 589.609 48.6065 589.673 48.5938L589.98 49.9489C589.878 49.9872 589.735 50.0256 589.552 50.0639C589.368 50.1065 589.136 50.1278 588.855 50.1278C588.429 50.1278 588.011 50.0362 587.602 49.853C587.197 49.6697 586.861 49.3906 586.592 49.0156C586.328 48.6406 586.196 48.1676 586.196 47.5966V37.8295ZM592.07 50V40.1818H593.579V50H592.07ZM592.837 38.5455C592.543 38.5455 592.29 38.4453 592.077 38.245C591.868 38.0447 591.763 37.804 591.763 37.5227C591.763 37.2415 591.868 37.0007 592.077 36.8004C592.29 36.6001 592.543 36.5 592.837 36.5C593.131 36.5 593.383 36.6001 593.591 36.8004C593.805 37.0007 593.911 37.2415 593.911 37.5227C593.911 37.804 593.805 38.0447 593.591 38.245C593.383 38.4453 593.131 38.5455 592.837 38.5455ZM600.33 50.2045C599.444 50.2045 598.666 49.9936 597.997 49.5717C597.332 49.1499 596.812 48.5597 596.438 47.8011C596.067 47.0426 595.881 46.1562 595.881 45.142C595.881 44.1193 596.067 43.2266 596.438 42.4638C596.812 41.701 597.332 41.1087 597.997 40.6868C598.666 40.2649 599.444 40.054 600.33 40.054C601.217 40.054 601.992 40.2649 602.657 40.6868C603.326 41.1087 603.846 41.701 604.217 42.4638C604.592 43.2266 604.779 44.1193 604.779 45.142C604.779 46.1562 604.592 47.0426 604.217 47.8011C603.846 48.5597 603.326 49.1499 602.657 49.5717C601.992 49.9936 601.217 50.2045 600.33 50.2045ZM600.33 48.8494C601.004 48.8494 601.558 48.6768 601.992 48.3317C602.427 47.9865 602.749 47.5327 602.957 46.9702C603.166 46.4077 603.271 45.7983 603.271 45.142C603.271 44.4858 603.166 43.8743 602.957 43.3075C602.749 42.7408 602.427 42.2827 601.992 41.9332C601.558 41.5838 601.004 41.4091 600.33 41.4091C599.657 41.4091 599.103 41.5838 598.668 41.9332C598.234 42.2827 597.912 42.7408 597.703 43.3075C597.494 43.8743 597.39 44.4858 597.39 45.142C597.39 45.7983 597.494 46.4077 597.703 46.9702C597.912 47.5327 598.234 47.9865 598.668 48.3317C599.103 48.6768 599.657 48.8494 600.33 48.8494ZM608.59 44.0938V50H607.082V40.1818H608.539V41.7159H608.667C608.897 41.2173 609.247 40.8168 609.715 40.5142C610.184 40.2074 610.789 40.054 611.531 40.054C612.195 40.054 612.777 40.1903 613.276 40.4631C613.774 40.7315 614.162 41.1406 614.439 41.6903C614.716 42.2358 614.855 42.9261 614.855 43.7614V50H613.346V43.8636C613.346 43.0923 613.146 42.4915 612.745 42.0611C612.345 41.6264 611.795 41.4091 611.096 41.4091C610.615 41.4091 610.184 41.5135 609.805 41.7223C609.43 41.9311 609.134 42.2358 608.916 42.6364C608.699 43.0369 608.59 43.5227 608.59 44.0938ZM620.5 50.2301C619.878 50.2301 619.314 50.1129 618.806 49.8786C618.299 49.6399 617.897 49.2969 617.598 48.8494C617.3 48.3977 617.151 47.8523 617.151 47.2131C617.151 46.6506 617.262 46.1946 617.483 45.8452C617.705 45.4915 618.001 45.2145 618.372 45.0142C618.743 44.8139 619.152 44.6648 619.599 44.5668C620.051 44.4645 620.505 44.3835 620.961 44.3239C621.557 44.2472 622.041 44.1896 622.412 44.1513C622.787 44.1087 623.059 44.0384 623.23 43.9403C623.404 43.8423 623.492 43.6719 623.492 43.429V43.3778C623.492 42.7472 623.319 42.2571 622.974 41.9077C622.633 41.5582 622.115 41.3835 621.421 41.3835C620.701 41.3835 620.136 41.5412 619.727 41.8565C619.318 42.1719 619.03 42.5085 618.864 42.8665L617.432 42.3551C617.688 41.7585 618.029 41.294 618.455 40.9616C618.885 40.625 619.354 40.3906 619.861 40.2585C620.373 40.1222 620.875 40.054 621.37 40.054C621.685 40.054 622.047 40.0923 622.456 40.169C622.87 40.2415 623.268 40.3928 623.652 40.6229C624.039 40.853 624.361 41.2003 624.617 41.6648C624.873 42.1293 625 42.7514 625 43.5312V50H623.492V48.6705H623.415C623.313 48.8835 623.142 49.1115 622.904 49.3544C622.665 49.5973 622.348 49.804 621.951 49.9744C621.555 50.1449 621.071 50.2301 620.5 50.2301ZM620.73 48.875C621.327 48.875 621.83 48.7578 622.239 48.5234C622.652 48.2891 622.963 47.9865 623.172 47.6158C623.385 47.245 623.492 46.8551 623.492 46.446V45.0653C623.428 45.142 623.287 45.2124 623.07 45.2763C622.857 45.3359 622.61 45.3892 622.328 45.4361C622.051 45.4787 621.781 45.517 621.517 45.5511C621.257 45.581 621.046 45.6065 620.884 45.6278C620.492 45.679 620.125 45.7621 619.784 45.8771C619.448 45.9879 619.175 46.1562 618.966 46.3821C618.762 46.6037 618.659 46.9062 618.659 47.2898C618.659 47.8139 618.853 48.2102 619.241 48.4787C619.633 48.7429 620.13 48.875 620.73 48.875ZM629.262 36.9091V50H627.754V36.9091H629.262Z" fill="#151101" fill-opacity="0.48"/>
<path d="M672 16H840V54C840 62.8366 832.837 70 824 70H688C679.163 70 672 62.8366 672 54V16Z" fill="#EDF6EE"/>
<path d="M672.5 16.5H839.5V54C839.5 62.5604 832.56 69.5 824 69.5H688C679.44 69.5 672.5 62.5604 672.5 54V16.5Z" stroke="#151101" stroke-opacity="0.48"/>
<path d="M716.053 40.1818C715.976 39.5341 715.665 39.0312 715.12 38.6733C714.574 38.3153 713.905 38.1364 713.113 38.1364C712.533 38.1364 712.026 38.2301 711.591 38.4176C711.161 38.6051 710.824 38.8629 710.581 39.1911C710.343 39.5192 710.223 39.892 710.223 40.3097C710.223 40.6591 710.306 40.9595 710.473 41.2109C710.643 41.4581 710.86 41.6648 711.125 41.831C711.389 41.9929 711.666 42.1271 711.956 42.2337C712.245 42.3359 712.512 42.419 712.755 42.483L714.084 42.8409C714.425 42.9304 714.804 43.054 715.222 43.2116C715.644 43.3693 716.047 43.5845 716.43 43.8572C716.818 44.1257 717.137 44.4709 717.389 44.8928C717.64 45.3146 717.766 45.8324 717.766 46.446C717.766 47.1534 717.581 47.7926 717.21 48.3636C716.843 48.9347 716.306 49.3885 715.599 49.7251C714.896 50.0618 714.042 50.2301 713.036 50.2301C712.098 50.2301 711.287 50.0788 710.6 49.7763C709.919 49.4737 709.382 49.0518 708.99 48.5107C708.602 47.9695 708.382 47.3409 708.331 46.625H709.968C710.01 47.1193 710.176 47.5284 710.466 47.8523C710.76 48.1719 711.131 48.4105 711.578 48.5682C712.03 48.7216 712.516 48.7983 713.036 48.7983C713.641 48.7983 714.184 48.7003 714.666 48.5043C715.147 48.304 715.529 48.027 715.81 47.6733C716.091 47.3153 716.232 46.8977 716.232 46.4205C716.232 45.9858 716.11 45.6321 715.868 45.3594C715.625 45.0866 715.305 44.8651 714.909 44.6946C714.512 44.5241 714.084 44.375 713.624 44.2472L712.013 43.7869C710.99 43.4929 710.181 43.0732 709.584 42.5277C708.988 41.9822 708.689 41.2685 708.689 40.3864C708.689 39.6534 708.887 39.0142 709.284 38.4688C709.684 37.919 710.221 37.4929 710.895 37.1903C711.572 36.8835 712.328 36.7301 713.164 36.7301C714.007 36.7301 714.757 36.8814 715.414 37.1839C716.07 37.4822 716.59 37.8913 716.973 38.4112C717.361 38.9311 717.566 39.5213 717.587 40.1818H716.053ZM726.355 45.9858V40.1818H727.864V50H726.355V48.3381H726.253C726.023 48.8366 725.665 49.2607 725.179 49.6101C724.693 49.9553 724.08 50.1278 723.338 50.1278C722.725 50.1278 722.179 49.9936 721.702 49.7251C721.225 49.4524 720.85 49.0433 720.577 48.4979C720.304 47.9482 720.168 47.2557 720.168 46.4205V40.1818H721.676V46.3182C721.676 47.0341 721.877 47.6051 722.277 48.0312C722.682 48.4574 723.198 48.6705 723.824 48.6705C724.199 48.6705 724.58 48.5746 724.968 48.3828C725.36 48.1911 725.688 47.897 725.953 47.5007C726.221 47.1044 726.355 46.5994 726.355 45.9858ZM730.831 50V36.9091H732.34V41.7415H732.468C732.578 41.571 732.732 41.3537 732.928 41.0895C733.128 40.821 733.414 40.5824 733.784 40.3736C734.159 40.1605 734.667 40.054 735.306 40.054C736.132 40.054 736.861 40.2607 737.492 40.674C738.123 41.0874 738.615 41.6733 738.968 42.4318C739.322 43.1903 739.499 44.0852 739.499 45.1165C739.499 46.1562 739.322 47.0575 738.968 47.8203C738.615 48.5788 738.125 49.1669 737.498 49.5845C736.872 49.9979 736.15 50.2045 735.331 50.2045C734.701 50.2045 734.196 50.1001 733.816 49.8913C733.437 49.6783 733.145 49.4375 732.941 49.169C732.736 48.8963 732.578 48.6705 732.468 48.4915H732.289V50H730.831ZM732.314 45.0909C732.314 45.8324 732.423 46.4865 732.64 47.0533C732.858 47.6158 733.175 48.0568 733.593 48.3764C734.01 48.6918 734.522 48.8494 735.127 48.8494C735.757 48.8494 736.284 48.6832 736.706 48.3509C737.132 48.0142 737.451 47.5625 737.664 46.9957C737.882 46.4247 737.99 45.7898 737.99 45.0909C737.99 44.4006 737.884 43.7784 737.671 43.2244C737.462 42.6662 737.145 42.2251 736.718 41.9013C736.297 41.5732 735.766 41.4091 735.127 41.4091C734.513 41.4091 733.998 41.5646 733.58 41.8757C733.162 42.1825 732.847 42.6129 732.634 43.1669C732.421 43.7166 732.314 44.358 732.314 45.0909ZM741.806 50V40.1818H743.264V41.7159H743.392C743.596 41.1918 743.926 40.7848 744.382 40.495C744.838 40.201 745.386 40.054 746.025 40.054C746.673 40.054 747.212 40.201 747.642 40.495C748.077 40.7848 748.416 41.1918 748.659 41.7159H748.761C749.012 41.2088 749.39 40.8061 749.892 40.5078C750.395 40.2053 750.998 40.054 751.701 40.054C752.579 40.054 753.297 40.3288 753.855 40.8786C754.414 41.424 754.693 42.2741 754.693 43.429V50H753.184V43.429C753.184 42.7045 752.986 42.1868 752.59 41.8757C752.194 41.5646 751.727 41.4091 751.19 41.4091C750.5 41.4091 749.965 41.6179 749.586 42.0355C749.206 42.4489 749.017 42.973 749.017 43.608V50H747.483V43.2756C747.483 42.7173 747.301 42.2678 746.939 41.9268C746.577 41.5817 746.11 41.4091 745.539 41.4091C745.147 41.4091 744.781 41.5135 744.44 41.7223C744.103 41.9311 743.831 42.2209 743.622 42.5916C743.417 42.9581 743.315 43.3821 743.315 43.8636V50H741.806ZM757.451 50V40.1818H758.96V50H757.451ZM758.218 38.5455C757.924 38.5455 757.67 38.4453 757.457 38.245C757.249 38.0447 757.144 37.804 757.144 37.5227C757.144 37.2415 757.249 37.0007 757.457 36.8004C757.67 36.6001 757.924 36.5 758.218 36.5C758.512 36.5 758.763 36.6001 758.972 36.8004C759.185 37.0007 759.292 37.2415 759.292 37.5227C759.292 37.804 759.185 38.0447 758.972 38.245C758.763 38.4453 758.512 38.5455 758.218 38.5455ZM768.677 42.3807L767.322 42.7642C767.237 42.5384 767.111 42.3189 766.945 42.1058C766.783 41.8885 766.561 41.7095 766.28 41.5689C765.999 41.4283 765.639 41.358 765.2 41.358C764.599 41.358 764.098 41.4964 763.698 41.7734C763.301 42.0462 763.103 42.3935 763.103 42.8153C763.103 43.1903 763.24 43.4865 763.512 43.7038C763.785 43.9212 764.211 44.1023 764.791 44.2472L766.248 44.6051C767.126 44.8182 767.78 45.1442 768.21 45.5831C768.641 46.0178 768.856 46.5781 768.856 47.2642C768.856 47.8267 768.694 48.3295 768.37 48.7727C768.051 49.2159 767.603 49.5653 767.028 49.821C766.453 50.0767 765.784 50.2045 765.021 50.2045C764.019 50.2045 763.191 49.9872 762.534 49.5526C761.878 49.1179 761.463 48.483 761.288 47.6477L762.72 47.2898C762.856 47.8182 763.114 48.2145 763.493 48.4787C763.877 48.7429 764.377 48.875 764.995 48.875C765.698 48.875 766.257 48.7259 766.67 48.4276C767.088 48.125 767.296 47.7628 767.296 47.3409C767.296 47 767.177 46.7145 766.938 46.4844C766.7 46.25 766.333 46.0753 765.839 45.9602L764.203 45.5767C763.303 45.3636 762.643 45.0334 762.221 44.5859C761.803 44.1342 761.595 43.5696 761.595 42.892C761.595 42.3381 761.75 41.848 762.061 41.4219C762.377 40.9957 762.805 40.6612 763.346 40.4183C763.892 40.1754 764.509 40.054 765.2 40.054C766.171 40.054 766.934 40.267 767.488 40.6932C768.046 41.1193 768.443 41.6818 768.677 42.3807ZM778.081 42.3807L776.726 42.7642C776.641 42.5384 776.515 42.3189 776.349 42.1058C776.187 41.8885 775.966 41.7095 775.684 41.5689C775.403 41.4283 775.043 41.358 774.604 41.358C774.003 41.358 773.502 41.4964 773.102 41.7734C772.706 42.0462 772.507 42.3935 772.507 42.8153C772.507 43.1903 772.644 43.4865 772.917 43.7038C773.189 43.9212 773.615 44.1023 774.195 44.2472L775.652 44.6051C776.53 44.8182 777.184 45.1442 777.615 45.5831C778.045 46.0178 778.26 46.5781 778.26 47.2642C778.26 47.8267 778.098 48.3295 777.775 48.7727C777.455 49.2159 777.007 49.5653 776.432 49.821C775.857 50.0767 775.188 50.2045 774.425 50.2045C773.424 50.2045 772.595 49.9872 771.939 49.5526C771.282 49.1179 770.867 48.483 770.692 47.6477L772.124 47.2898C772.26 47.8182 772.518 48.2145 772.897 48.4787C773.281 48.7429 773.782 48.875 774.4 48.875C775.103 48.875 775.661 48.7259 776.074 48.4276C776.492 48.125 776.701 47.7628 776.701 47.3409C776.701 47 776.581 46.7145 776.343 46.4844C776.104 46.25 775.738 46.0753 775.243 45.9602L773.607 45.5767C772.708 45.3636 772.047 45.0334 771.625 44.5859C771.208 44.1342 770.999 43.5696 770.999 42.892C770.999 42.3381 771.154 41.848 771.466 41.4219C771.781 40.9957 772.209 40.6612 772.75 40.4183C773.296 40.1754 773.914 40.054 774.604 40.054C775.576 40.054 776.338 40.267 776.892 40.6932C777.451 41.1193 777.847 41.6818 778.081 42.3807ZM780.531 50V40.1818H782.04V50H780.531ZM781.298 38.5455C781.004 38.5455 780.751 38.4453 780.537 38.245C780.329 38.0447 780.224 37.804 780.224 37.5227C780.224 37.2415 780.329 37.0007 780.537 36.8004C780.751 36.6001 781.004 36.5 781.298 36.5C781.592 36.5 781.844 36.6001 782.052 36.8004C782.265 37.0007 782.372 37.2415 782.372 37.5227C782.372 37.804 782.265 38.0447 782.052 38.245C781.844 38.4453 781.592 38.5455 781.298 38.5455ZM788.791 50.2045C787.905 50.2045 787.127 49.9936 786.458 49.5717C785.793 49.1499 785.273 48.5597 784.898 47.8011C784.528 47.0426 784.342 46.1562 784.342 45.142C784.342 44.1193 784.528 43.2266 784.898 42.4638C785.273 41.701 785.793 41.1087 786.458 40.6868C787.127 40.2649 787.905 40.054 788.791 40.054C789.678 40.054 790.453 40.2649 791.118 40.6868C791.787 41.1087 792.307 41.701 792.678 42.4638C793.053 43.2266 793.24 44.1193 793.24 45.142C793.24 46.1562 793.053 47.0426 792.678 47.8011C792.307 48.5597 791.787 49.1499 791.118 49.5717C790.453 49.9936 789.678 50.2045 788.791 50.2045ZM788.791 48.8494C789.464 48.8494 790.018 48.6768 790.453 48.3317C790.888 47.9865 791.21 47.5327 791.418 46.9702C791.627 46.4077 791.732 45.7983 791.732 45.142C791.732 44.4858 791.627 43.8743 791.418 43.3075C791.21 42.7408 790.888 42.2827 790.453 41.9332C790.018 41.5838 789.464 41.4091 788.791 41.4091C788.118 41.4091 787.564 41.5838 787.129 41.9332C786.695 42.2827 786.373 42.7408 786.164 43.3075C785.955 43.8743 785.851 44.4858 785.851 45.142C785.851 45.7983 785.955 46.4077 786.164 46.9702C786.373 47.5327 786.695 47.9865 787.129 48.3317C787.564 48.6768 788.118 48.8494 788.791 48.8494ZM797.051 44.0938V50H795.543V40.1818H797V41.7159H797.128C797.358 41.2173 797.708 40.8168 798.176 40.5142C798.645 40.2074 799.25 40.054 799.992 40.054C800.656 40.054 801.238 40.1903 801.737 40.4631C802.235 40.7315 802.623 41.1406 802.9 41.6903C803.177 42.2358 803.316 42.9261 803.316 43.7614V50H801.807V43.8636C801.807 43.0923 801.607 42.4915 801.206 42.0611C800.806 41.6264 800.256 41.4091 799.557 41.4091C799.075 41.4091 798.645 41.5135 798.266 41.7223C797.891 41.9311 797.595 42.2358 797.377 42.6364C797.16 43.0369 797.051 43.5227 797.051 44.0938Z" fill="#151101" fill-opacity="0.48"/>
</svg>
