<svg width="40" height="40" viewBox="0 0 40 40" fill="none" xmlns="http://www.w3.org/2000/svg">
<path d="M26.9835 3.3335H13.0168C6.95016 3.3335 3.3335 6.95016 3.3335 13.0168V26.9668C3.3335 33.0502 6.95016 36.6668 13.0168 36.6668H26.9668C33.0335 36.6668 36.6502 33.0502 36.6502 26.9835V13.0168C36.6668 6.95016 33.0502 3.3335 26.9835 3.3335ZM30.0002 21.2502H21.2502V30.0002C21.2502 30.6835 20.6835 31.2502 20.0002 31.2502C19.3168 31.2502 18.7502 30.6835 18.7502 30.0002V21.2502H10.0002C9.31683 21.2502 8.75016 20.6835 8.75016 20.0002C8.75016 19.3168 9.31683 18.7502 10.0002 18.7502H18.7502V10.0002C18.7502 9.31683 19.3168 8.75016 20.0002 8.75016C20.6835 8.75016 21.2502 9.31683 21.2502 10.0002V18.7502H30.0002C30.6835 18.7502 31.2502 19.3168 31.2502 20.0002C31.2502 20.6835 30.6835 21.2502 30.0002 21.2502Z" fill="#EDF6EE"/>
</svg>
