<svg width="33" height="32" viewBox="0 0 33 32" fill="none" xmlns="http://www.w3.org/2000/svg">
<path d="M27.4466 10.4266L17.18 16.3733C16.7666 16.6133 16.2466 16.6133 15.82 16.3733L5.55331 10.4266C4.81998 9.99992 4.63331 8.99992 5.19331 8.37326C5.57998 7.93326 6.01998 7.57325 6.48665 7.31992L13.7133 3.31992C15.26 2.45326 17.7666 2.45326 19.3133 3.31992L26.54 7.31992C27.0066 7.57325 27.4466 7.94659 27.8333 8.37326C28.3666 8.99992 28.18 9.99992 27.4466 10.4266Z" fill="#151101" fill-opacity="0.48"/>
<path d="M15.74 18.8535V27.9468C15.74 28.9602 14.7133 29.6268 13.8067 29.1868C11.06 27.8402 6.43333 25.3202 6.43333 25.3202C4.80666 24.4002 3.47333 22.0802 3.47333 20.1735V13.2935C3.47333 12.2402 4.57999 11.5735 5.48666 12.0935L15.0733 17.6535C15.4733 17.9068 15.74 18.3602 15.74 18.8535Z" fill="#151101" fill-opacity="0.48"/>
<path d="M17.26 18.8535V27.9468C17.26 28.9602 18.2867 29.6268 19.1933 29.1868C21.94 27.8402 26.5667 25.3202 26.5667 25.3202C28.1933 24.4002 29.5267 22.0802 29.5267 20.1735V13.2935C29.5267 12.2402 28.42 11.5735 27.5133 12.0935L17.9267 17.6535C17.5267 17.9068 17.26 18.3602 17.26 18.8535Z" fill="#151101" fill-opacity="0.48"/>
</svg>
