<svg width="28" height="29" viewBox="0 0 28 29" fill="none" xmlns="http://www.w3.org/2000/svg">
<path d="M24.5817 6.60183C22.7034 6.41516 20.825 6.27516 18.935 6.17016V6.1585L18.6784 4.64183C18.5034 3.5685 18.2467 1.9585 15.5167 1.9585H12.46C9.74169 1.9585 9.48502 3.4985 9.29835 4.63016L9.05335 6.1235C7.96835 6.1935 6.88335 6.2635 5.79835 6.3685L3.41835 6.60183C2.92835 6.6485 2.57835 7.08016 2.62502 7.5585C2.67169 8.03683 3.09169 8.38683 3.58169 8.34016L5.96169 8.10683C12.075 7.50016 18.235 7.7335 24.4184 8.35183C24.4534 8.35183 24.4767 8.35183 24.5117 8.35183C24.955 8.35183 25.34 8.0135 25.3867 7.5585C25.4217 7.08016 25.0717 6.6485 24.5817 6.60183Z" fill="#EDF6EE" fill-opacity="0.88"/>
<path d="M22.435 9.9965C22.155 9.70484 21.77 9.5415 21.3733 9.5415H6.62664C6.22997 9.5415 5.83331 9.70484 5.56497 9.9965C5.29664 10.2882 5.14497 10.6848 5.16831 11.0932L5.89164 23.0632C6.01997 24.8365 6.18331 27.0532 10.255 27.0532H17.745C21.8166 27.0532 21.98 24.8482 22.1083 23.0632L22.8316 11.1048C22.855 10.6848 22.7033 10.2882 22.435 9.9965ZM15.9366 21.2082H12.0516C11.5733 21.2082 11.1766 20.8115 11.1766 20.3332C11.1766 19.8548 11.5733 19.4582 12.0516 19.4582H15.9366C16.415 19.4582 16.8116 19.8548 16.8116 20.3332C16.8116 20.8115 16.415 21.2082 15.9366 21.2082ZM16.9166 16.5415H11.0833C10.605 16.5415 10.2083 16.1448 10.2083 15.6665C10.2083 15.1882 10.605 14.7915 11.0833 14.7915H16.9166C17.395 14.7915 17.7916 15.1882 17.7916 15.6665C17.7916 16.1448 17.395 16.5415 16.9166 16.5415Z" fill="#EDF6EE" fill-opacity="0.88"/>
</svg>
