<svg width="28" height="29" viewBox="0 0 28 29" fill="none" xmlns="http://www.w3.org/2000/svg">
<path d="M18.6666 2.8335H9.33331C4.66665 2.8335 2.33331 5.16683 2.33331 9.8335V25.0002C2.33331 25.6418 2.85831 26.1668 3.49998 26.1668H18.6666C23.3333 26.1668 25.6666 23.8335 25.6666 19.1668V9.8335C25.6666 5.16683 23.3333 2.8335 18.6666 2.8335ZM12.9616 19.9368C12.67 20.2285 12.1333 20.4968 11.7366 20.5552L9.30998 20.8935C9.21665 20.9052 9.12331 20.9168 9.04165 20.9168C8.63331 20.9168 8.25998 20.7768 7.99165 20.5085C7.66498 20.1818 7.52498 19.7035 7.60665 19.1902L7.94498 16.7635C8.00331 16.3668 8.27165 15.8185 8.56331 15.5385L12.9616 11.1402C13.0316 11.3502 13.125 11.5602 13.23 11.7935C13.335 12.0035 13.44 12.2135 13.5566 12.4118C13.65 12.5752 13.755 12.7385 13.8483 12.8552C13.965 13.0302 14.0816 13.1818 14.1633 13.2635C14.21 13.3335 14.2566 13.3802 14.2683 13.4035C14.525 13.6952 14.7933 13.9752 15.05 14.1852C15.12 14.2552 15.1666 14.2902 15.1783 14.3018C15.33 14.4185 15.47 14.5468 15.61 14.6285C15.7616 14.7452 15.925 14.8502 16.0883 14.9435C16.2866 15.0602 16.4966 15.1768 16.7183 15.2818C16.94 15.3868 17.15 15.4685 17.36 15.5385L12.9616 19.9368ZM19.3083 13.6018L18.3983 14.5118C18.34 14.5702 18.2583 14.6052 18.1766 14.6052C18.1533 14.6052 18.1066 14.6052 18.0833 14.5935C16.0766 14.0218 14.4783 12.4235 13.9066 10.4168C13.8716 10.3118 13.9066 10.1952 13.9883 10.1135L14.91 9.19183C16.415 7.68683 17.8383 7.72183 19.3083 9.19183C20.055 9.9385 20.4283 10.6618 20.4166 11.4085C20.4166 12.1435 20.055 12.8552 19.3083 13.6018Z" fill="#EDF6EE" fill-opacity="0.88"/>
</svg>
