<svg width="36" height="37" viewBox="0 0 36 37" fill="none" xmlns="http://www.w3.org/2000/svg">
<path d="M23.7599 33.5H12.2399C5.9549 33.5 4.7099 29.705 6.7499 25.085L8.9099 20.18C8.9099 20.18 13.4999 20 17.9999 21.5C22.4999 23 26.7449 20.165 26.7449 20.165L27.0299 19.985L29.2649 25.1C31.2749 29.72 29.9549 33.5 23.7599 33.5Z" fill="#412E28"/>
<path d="M23.16 10.61H22.92L26.115 17.9L25.5 18.29C25.47 18.305 22.08 20.48 18.705 19.37C15.18 18.185 11.64 17.975 9.89998 17.945L13.11 10.61H12.66C11.685 10.61 10.785 10.22 10.14 9.575C9.49498 8.93 9.10498 8.03 9.10498 7.055C9.10498 5.105 10.695 3.5 12.66 3.5H23.325C24.315 3.5 25.2 3.905 25.845 4.55C26.685 5.39 27.12 6.62 26.79 7.925C26.4 9.545 24.84 10.61 23.16 10.61Z" fill="#412E28"/>
</svg>
