<svg width="33" height="32" viewBox="0 0 33 32" fill="none" xmlns="http://www.w3.org/2000/svg">
<path d="M23.3 2.66699H17.7C13.4612 2.66699 11.5433 4.21806 11.2265 7.98788C11.1799 8.54284 11.635 9.00033 12.1919 9.00033H15.3C20.9 9.00033 23.5 11.6003 23.5 17.2003V20.3084C23.5 20.8653 23.9575 21.3204 24.5124 21.2738C28.2823 20.957 29.8333 19.0391 29.8333 14.8003V9.20033C29.8333 4.53366 27.9667 2.66699 23.3 2.66699Z" fill="#151101" fill-opacity="0.48"/>
<path d="M15.3 10.667H9.70002C5.03335 10.667 3.16669 12.5337 3.16669 17.2003V22.8003C3.16669 27.467 5.03335 29.3337 9.70002 29.3337H15.3C19.9667 29.3337 21.8334 27.467 21.8334 22.8003V17.2003C21.8334 12.5337 19.9667 10.667 15.3 10.667ZM16.8867 18.2003L11.94 23.147C11.7534 23.3337 11.5134 23.427 11.26 23.427C11.0067 23.427 10.7667 23.3337 10.58 23.147L8.10002 20.667C7.72669 20.2937 7.72669 19.6937 8.10002 19.3203C8.47335 18.947 9.07335 18.947 9.44669 19.3203L11.2467 21.1203L15.5267 16.8403C15.9 16.467 16.5 16.467 16.8734 16.8403C17.2467 17.2137 17.26 17.827 16.8867 18.2003Z" fill="#151101" fill-opacity="0.48"/>
</svg>
