<svg width="33" height="32" viewBox="0 0 33 32" fill="none" xmlns="http://www.w3.org/2000/svg">
<path d="M19.1666 21.3334C19.1666 23.6934 18.14 25.8267 16.5 27.2801C15.0866 28.5601 13.22 29.3334 11.1666 29.3334C6.75329 29.3334 3.16663 25.7467 3.16663 21.3334C3.16663 18.5653 4.58807 16.1207 6.73163 14.6883C6.9839 14.5197 7.31947 14.6386 7.44811 14.9134C8.68613 17.558 11.044 19.5433 13.86 20.3067C14.7 20.5467 15.58 20.6667 16.5 20.6667C17.2137 20.6667 17.8944 20.5924 18.5551 20.4566C18.8424 20.3976 19.1292 20.5826 19.1502 20.8752C19.1611 21.0282 19.1666 21.1822 19.1666 21.3334Z" fill="#151101" fill-opacity="0.48"/>
<path d="M24.5 10.667C24.5 11.707 24.3 12.707 23.94 13.6137C23.02 15.9337 21.0467 17.7203 18.6067 18.387C17.94 18.5737 17.2333 18.667 16.5 18.667C15.7667 18.667 15.06 18.5737 14.3933 18.387C11.9533 17.7203 9.98 15.9337 9.06 13.6137C8.7 12.707 8.5 11.707 8.5 10.667C8.5 6.25366 12.0867 2.66699 16.5 2.66699C20.9133 2.66699 24.5 6.25366 24.5 10.667Z" fill="#151101" fill-opacity="0.48"/>
<path d="M29.8333 21.3334C29.8333 25.7467 26.2466 29.3334 21.8333 29.3334C20.7591 29.3334 19.7291 29.1215 18.7936 28.7336C18.4786 28.603 18.4196 28.1954 18.6475 27.9418C20.266 26.1413 21.1666 23.7929 21.1666 21.3334C21.1666 20.8801 21.1266 20.4267 21.06 20.0001L21.0518 19.9493C21.017 19.7336 21.127 19.5213 21.3187 19.4164C23.1601 18.4094 24.6535 16.8382 25.5521 14.9143C25.6806 14.6392 26.0164 14.52 26.2689 14.6887C28.4121 16.1212 29.8333 18.5655 29.8333 21.3334Z" fill="#151101" fill-opacity="0.48"/>
</svg>
