<svg width="36" height="37" viewBox="0 0 36 37" fill="none" xmlns="http://www.w3.org/2000/svg">
<path d="M21 24.5001C21 27.1551 19.845 29.5551 18 31.1901C16.41 32.6301 14.31 33.5001 12 33.5001C7.035 33.5001 3 29.4651 3 24.5001C3 21.3602 4.62561 18.5905 7.07046 16.9847C7.32407 16.8181 7.65962 16.937 7.78649 17.2126C9.17089 20.2202 11.839 22.4799 15.03 23.3451C15.975 23.6151 16.965 23.7501 18 23.7501C18.827 23.7501 19.6146 23.6613 20.3788 23.4998C20.6658 23.4391 20.9525 23.6242 20.9763 23.9166C20.9921 24.111 21 24.3075 21 24.5001Z" fill="#412E28"/>
<path d="M27 12.5C27 13.67 26.775 14.795 26.37 15.815C25.335 18.425 23.115 20.435 20.37 21.185C19.62 21.395 18.825 21.5 18 21.5C17.175 21.5 16.38 21.395 15.63 21.185C12.885 20.435 10.665 18.425 9.63 15.815C9.225 14.795 9 13.67 9 12.5C9 7.535 13.035 3.5 18 3.5C22.965 3.5 27 7.535 27 12.5Z" fill="#412E28"/>
<path d="M33 24.5001C33 29.4651 28.965 33.5001 24 33.5001C22.761 33.5001 21.5741 33.2494 20.5005 32.7918C20.1869 32.6581 20.1279 32.2504 20.3578 31.9987C22.2152 29.9649 23.25 27.2963 23.25 24.5001C23.25 23.9901 23.205 23.4801 23.13 23.0001L23.1135 22.8976C23.0787 22.6819 23.1886 22.4695 23.3808 22.3654C25.4917 21.2222 27.1999 19.4216 28.2138 17.2134C28.3405 16.9375 28.6763 16.8184 28.9301 16.9851C31.3747 18.5909 33 21.3605 33 24.5001Z" fill="#412E28"/>
</svg>
