<svg width="192" height="47" viewBox="0 0 192 47" fill="none" xmlns="http://www.w3.org/2000/svg">
<path d="M0.46875 31.7812V10.2812C0.46875 8.82292 0.447917 7.46875 0.40625 6.21875C0.385417 4.94792 0.34375 3.8125 0.28125 2.8125C0.21875 1.8125 0.125 1 0 0.375C0.458333 0.354167 1.04167 0.333333 1.75 0.3125C2.47917 0.270833 3.27083 0.239583 4.125 0.21875C5 0.197917 5.91667 0.177083 6.875 0.15625C7.83333 0.135417 8.79167 0.125 9.75 0.125C10.7083 0.104167 11.6354 0.09375 12.5312 0.09375C13.4271 0.0729167 14.25 0.0625 15 0.0625C16.4375 0.0625 18 0.166667 19.6875 0.375C21.3958 0.583333 23.1042 0.989583 24.8125 1.59375C26.5417 2.17708 28.1979 3 29.7812 4.0625C31.3854 5.10417 32.8021 6.46875 34.0312 8.15625C35.2812 9.84375 36.2708 11.8958 37 14.3125C37.75 16.7292 38.125 19.5833 38.125 22.875C38.125 25.9792 37.7604 28.7188 37.0312 31.0938C36.3021 33.4479 35.3229 35.4896 34.0938 37.2188C32.8854 38.9479 31.4792 40.3958 29.875 41.5625C28.2708 42.7292 26.5833 43.6667 24.8125 44.375C23.0625 45.0833 21.2812 45.5833 19.4688 45.875C17.6562 46.1667 15.9479 46.3125 14.3438 46.3125C13.8021 46.3125 13.1875 46.3021 12.5 46.2812C11.8125 46.2812 11.0833 46.2708 10.3125 46.25C9.54167 46.25 8.75 46.2396 7.9375 46.2188C7.14583 46.1979 6.36458 46.1771 5.59375 46.1562C3.80208 46.1146 1.9375 46.0625 0 46C0.125 45.375 0.208333 44.5729 0.25 43.5938C0.3125 42.6146 0.354167 41.5104 0.375 40.2812C0.416667 39.0521 0.4375 37.7188 0.4375 36.2812C0.458333 34.8229 0.46875 33.3229 0.46875 31.7812ZM9.375 38.7812C9.97917 38.8438 10.7708 38.9167 11.75 39C12.7292 39.0625 13.8438 39.0938 15.0938 39.0938C16.8438 39.0938 18.5521 38.8125 20.2188 38.25C21.8854 37.6875 23.3646 36.7917 24.6562 35.5625C25.9688 34.3125 27.0208 32.6979 27.8125 30.7188C28.6042 28.7396 29 26.3333 29 23.5C29 20.3958 28.6562 17.7917 27.9688 15.6875C27.3021 13.5833 26.3646 11.8958 25.1562 10.625C23.9479 9.33333 22.4896 8.41667 20.7812 7.875C19.0938 7.33333 17.2396 7.0625 15.2188 7.0625C14.7812 7.0625 14.2917 7.07292 13.75 7.09375C13.2292 7.09375 12.6979 7.10417 12.1562 7.125C11.6146 7.14583 11.0938 7.16667 10.5938 7.1875C10.1146 7.1875 9.70833 7.19792 9.375 7.21875V38.7812Z" fill="black"/>
<path d="M56.4012 28.1875H69.6825V10.2188L56.4012 28.1875ZM77.9637 35.2188V46H69.6825V35.2188H48.745V28.1875L68.5887 0.375H77.9637V28.1875H82.9637V35.2188H77.9637Z" fill="black"/>
<path d="M105.115 20.8438V31.5625C105.115 33.3333 105.188 34.75 105.334 35.8125C105.48 36.8542 105.709 37.6562 106.021 38.2188C106.355 38.7812 106.771 39.1458 107.271 39.3125C107.771 39.4792 108.375 39.5625 109.084 39.5625C109.875 39.5625 110.761 39.3646 111.74 38.9688C112.74 38.5729 113.865 37.9896 115.115 37.2188V44.2188C113.615 45.1562 112.177 45.8125 110.802 46.1875C109.448 46.5833 108.209 46.7812 107.084 46.7812C105.605 46.7812 104.209 46.6354 102.896 46.3438C101.605 46.0729 100.469 45.5833 99.49 44.875C98.5317 44.1667 97.7712 43.2292 97.2087 42.0625C96.6462 40.875 96.365 39.375 96.365 37.5625V20.8438H90.4275V14.5938H96.365V4.75H105.115V14.5938H114.646V20.8438H105.115Z" fill="black"/>
<path d="M137.923 20.8438V31.5625C137.923 33.3333 137.995 34.75 138.141 35.8125C138.287 36.8542 138.516 37.6562 138.829 38.2188C139.162 38.7812 139.579 39.1458 140.079 39.3125C140.579 39.4792 141.183 39.5625 141.891 39.5625C142.683 39.5625 143.568 39.3646 144.548 38.9688C145.548 38.5729 146.673 37.9896 147.923 37.2188V44.2188C146.423 45.1562 144.985 45.8125 143.61 46.1875C142.256 46.5833 141.016 46.7812 139.891 46.7812C138.412 46.7812 137.016 46.6354 135.704 46.3438C134.412 46.0729 133.277 45.5833 132.298 44.875C131.339 44.1667 130.579 43.2292 130.016 42.0625C129.454 40.875 129.173 39.375 129.173 37.5625V20.8438H123.235V14.5938H129.173V4.75H137.923V14.5938H147.454V20.8438H137.923Z" fill="black"/>
<path d="M180.73 21.125C180.292 21.0208 179.657 20.8958 178.824 20.75C177.99 20.5833 176.907 20.5 175.574 20.5C173.928 20.5 172.553 20.8542 171.449 21.5625C170.345 22.2708 169.459 23.2188 168.792 24.4062C168.147 25.5938 167.678 26.9479 167.386 28.4688C167.115 29.9896 166.98 31.5625 166.98 33.1875C166.98 34.1042 167.063 34.9375 167.23 35.6875C167.417 36.4375 167.667 37.0833 167.98 37.625C168.292 38.1667 168.657 38.5938 169.074 38.9062C169.49 39.1979 169.938 39.3438 170.417 39.3438C171.188 39.3438 171.98 39.0312 172.792 38.4062C173.605 37.7604 174.386 36.9375 175.136 35.9375C175.907 34.9375 176.626 33.8229 177.292 32.5938C177.98 31.3646 178.574 30.1562 179.074 28.9688C179.595 27.7604 180.001 26.6458 180.292 25.625C180.584 24.6042 180.73 23.7917 180.73 23.1875V21.125ZM183.386 46C183.157 45.625 182.938 45.0521 182.73 44.2812C182.522 43.4896 182.334 42.6458 182.167 41.75C182.022 40.8333 181.897 39.9375 181.792 39.0625C181.709 38.1667 181.667 37.4271 181.667 36.8438V35.0625C181.001 36.4167 180.199 37.7917 179.261 39.1875C178.345 40.5625 177.292 41.8125 176.105 42.9375C174.917 44.0625 173.605 44.9896 172.167 45.7188C170.751 46.4271 169.23 46.7812 167.605 46.7812C166.292 46.7812 165.063 46.4896 163.917 45.9062C162.772 45.3229 161.772 44.4583 160.917 43.3125C160.084 42.1667 159.428 40.75 158.949 39.0625C158.47 37.3542 158.23 35.3958 158.23 33.1875C158.23 30.7083 158.595 28.2917 159.324 25.9375C160.053 23.5625 161.178 21.4583 162.699 19.625C164.22 17.7708 166.157 16.2917 168.511 15.1875C170.865 14.0625 173.657 13.5 176.886 13.5C179.157 13.5 181.407 13.6354 183.636 13.9062C185.865 14.1562 187.876 14.4896 189.667 14.9062V29.4375C189.667 33.375 189.855 36.6875 190.23 39.375C190.605 42.0417 191.095 44.25 191.699 46H183.386Z" fill="black"/>
<path d="M161.312 0H190.312C190.312 4.41828 186.731 8 182.312 8H161.312V0Z" fill="#412E28"/>
</svg>
