<svg width="41" height="40" viewBox="0 0 41 40" fill="none" xmlns="http://www.w3.org/2000/svg">
<path d="M37.3654 19.9997C37.3654 10.8163 29.882 3.33301 20.6987 3.33301C11.5154 3.33301 4.03204 10.8163 4.03204 19.9997C4.03204 24.833 6.11538 29.183 9.41538 32.233C9.41538 32.2497 9.41538 32.2497 9.39871 32.2663C9.56538 32.433 9.76538 32.5663 9.93204 32.7163C10.032 32.7997 10.1154 32.883 10.2154 32.9497C10.5154 33.1997 10.8487 33.433 11.1654 33.6663C11.282 33.7497 11.382 33.8163 11.4987 33.8997C11.8154 34.1163 12.1487 34.3163 12.4987 34.4997C12.6154 34.5663 12.7487 34.6497 12.8654 34.7163C13.1987 34.8997 13.5487 35.0663 13.9154 35.2163C14.0487 35.283 14.182 35.3497 14.3154 35.3997C14.682 35.5497 15.0487 35.683 15.4154 35.7997C15.5487 35.8497 15.682 35.8997 15.8154 35.933C16.2154 36.0497 16.6154 36.1497 17.0154 36.2497C17.132 36.283 17.2487 36.3163 17.382 36.333C17.8487 36.433 18.3154 36.4997 18.7987 36.5497C18.8654 36.5497 18.932 36.5663 18.9987 36.583C19.5654 36.633 20.132 36.6663 20.6987 36.6663C21.2654 36.6663 21.832 36.633 22.382 36.583C22.4487 36.583 22.5154 36.5663 22.582 36.5497C23.0654 36.4997 23.532 36.433 23.9987 36.333C24.1154 36.3163 24.232 36.2663 24.3654 36.2497C24.7654 36.1497 25.182 36.0663 25.5654 35.933C25.6987 35.883 25.832 35.833 25.9654 35.7997C26.332 35.6663 26.7154 35.5497 27.0654 35.3997C27.1987 35.3497 27.332 35.283 27.4654 35.2163C27.8154 35.0663 28.1654 34.8997 28.5154 34.7163C28.6487 34.6497 28.7654 34.5663 28.882 34.4997C29.2154 34.2997 29.5487 34.1163 29.882 33.8997C29.9987 33.833 30.0987 33.7497 30.2154 33.6663C30.5487 33.433 30.8654 33.1997 31.1654 32.9497C31.2654 32.8663 31.3487 32.783 31.4487 32.7163C31.632 32.5663 31.8154 32.4163 31.982 32.2663C31.982 32.2497 31.982 32.2497 31.9654 32.233C35.282 29.183 37.3654 24.833 37.3654 19.9997ZM28.932 28.283C24.4154 25.2497 17.0154 25.2497 12.4654 28.283C11.732 28.7663 11.132 29.333 10.632 29.9497C8.09871 27.383 6.53204 23.8663 6.53204 19.9997C6.53204 12.183 12.882 5.83301 20.6987 5.83301C28.5154 5.83301 34.8654 12.183 34.8654 19.9997C34.8654 23.8663 33.2987 27.383 30.7654 29.9497C30.282 29.333 29.6654 28.7663 28.932 28.283Z" fill="#EDF6EE"/>
<path d="M20.6987 11.5498C17.2487 11.5498 14.4487 14.3498 14.4487 17.7998C14.4487 21.1831 17.0987 23.9331 20.6154 24.0331C20.6654 24.0331 20.7321 24.0331 20.7654 24.0331C20.7987 24.0331 20.8487 24.0331 20.8821 24.0331C20.8987 24.0331 20.9154 24.0331 20.9154 24.0331C24.2821 23.9165 26.9321 21.1831 26.9487 17.7998C26.9487 14.3498 24.1487 11.5498 20.6987 11.5498Z" fill="#EDF6EE"/>
</svg>
