<svg width="33" height="32" viewBox="0 0 33 32" fill="none" xmlns="http://www.w3.org/2000/svg">
<g opacity="0.48">
<path d="M16.032 2.66699C9.04536 2.66699 3.36536 8.34699 3.36536 15.3337C3.36536 22.3203 9.04536 28.0003 16.032 28.0003C23.0187 28.0003 28.6987 22.3203 28.6987 15.3337C28.6987 8.34699 23.0187 2.66699 16.032 2.66699ZM16.032 18.3337H12.032C11.4854 18.3337 11.032 17.8803 11.032 17.3337C11.032 16.787 11.4854 16.3337 12.032 16.3337H16.032C16.5787 16.3337 17.032 16.787 17.032 17.3337C17.032 17.8803 16.5787 18.3337 16.032 18.3337ZM20.032 14.3337H12.032C11.4854 14.3337 11.032 13.8803 11.032 13.3337C11.032 12.787 11.4854 12.3337 12.032 12.3337H20.032C20.5787 12.3337 21.032 12.787 21.032 13.3337C21.032 13.8803 20.5787 14.3337 20.032 14.3337Z" fill="#151101"/>
<path d="M29.0995 29.3318C28.8595 29.3318 28.6195 29.2384 28.4462 29.0651L25.9662 26.5851C25.6062 26.2251 25.6062 25.6385 25.9662 25.2651C26.3262 24.9051 26.9128 24.9051 27.2862 25.2651L29.7662 27.7451C30.1262 28.1051 30.1262 28.6918 29.7662 29.0651C29.5795 29.2384 29.3395 29.3318 29.0995 29.3318Z" fill="#151101"/>
</g>
</svg>
